<svg width="25" height="25" viewBox="0 0 25 25" fill="none" xmlns="http://www.w3.org/2000/svg">
<mask id="mask0_515_31" style="mask-type:alpha" maskUnits="userSpaceOnUse" x="0" y="0" width="25" height="25">
<rect x="0.713898" y="0.72998" width="24" height="24" fill="#D9D9D9"/>
</mask>
<g mask="url(#mask0_515_31)">
<path d="M11.7139 17.73H13.7139V13.73H17.7139V11.73H13.7139V7.72998H11.7139V11.73H7.7139V13.73H11.7139V17.73ZM12.7139 22.73C11.3306 22.73 10.0306 22.4675 8.8139 21.9425C7.59723 21.4175 6.5389 20.705 5.6389 19.805C4.7389 18.905 4.0264 17.8466 3.5014 16.63C2.9764 15.4133 2.7139 14.1133 2.7139 12.73C2.7139 11.3466 2.9764 10.0466 3.5014 8.82998C4.0264 7.61331 4.7389 6.55498 5.6389 5.65498C6.5389 4.75498 7.59723 4.04248 8.8139 3.51748C10.0306 2.99248 11.3306 2.72998 12.7139 2.72998C14.0972 2.72998 15.3972 2.99248 16.6139 3.51748C17.8306 4.04248 18.8889 4.75498 19.7889 5.65498C20.6889 6.55498 21.4014 7.61331 21.9264 8.82998C22.4514 10.0466 22.7139 11.3466 22.7139 12.73C22.7139 14.1133 22.4514 15.4133 21.9264 16.63C21.4014 17.8466 20.6889 18.905 19.7889 19.805C18.8889 20.705 17.8306 21.4175 16.6139 21.9425C15.3972 22.4675 14.0972 22.73 12.7139 22.73ZM12.7139 20.73C14.9472 20.73 16.8389 19.955 18.3889 18.405C19.9389 16.855 20.7139 14.9633 20.7139 12.73C20.7139 10.4966 19.9389 8.60498 18.3889 7.05498C16.8389 5.50498 14.9472 4.72998 12.7139 4.72998C10.4806 4.72998 8.5889 5.50498 7.0389 7.05498C5.4889 8.60498 4.7139 10.4966 4.7139 12.73C4.7139 14.9633 5.4889 16.855 7.0389 18.405C8.5889 19.955 10.4806 20.73 12.7139 20.73Z" fill="#333333"/>
</g>
</svg>
