<svg width="25" height="25" viewBox="0 0 25 25" fill="none" xmlns="http://www.w3.org/2000/svg">
<mask id="mask0_515_37" style="mask-type:alpha" maskUnits="userSpaceOnUse" x="0" y="0" width="25" height="25">
<rect x="0.0496368" y="0.136688" width="24" height="24" fill="#D9D9D9"/>
</mask>
<g mask="url(#mask0_515_37)">
<path d="M8.44964 17.1367L12.0496 13.5367L15.6496 17.1367L17.0496 15.7367L13.4496 12.1367L17.0496 8.53669L15.6496 7.13669L12.0496 10.7367L8.44964 7.13669L7.04964 8.53669L10.6496 12.1367L7.04964 15.7367L8.44964 17.1367ZM12.0496 22.1367C10.6663 22.1367 9.3663 21.8742 8.14964 21.3492C6.93297 20.8242 5.87464 20.1117 4.97464 19.2117C4.07464 18.3117 3.36214 17.2534 2.83714 16.0367C2.31214 14.82 2.04964 13.52 2.04964 12.1367C2.04964 10.7534 2.31214 9.45335 2.83714 8.23669C3.36214 7.02002 4.07464 5.96169 4.97464 5.06169C5.87464 4.16169 6.93297 3.44919 8.14964 2.92419C9.3663 2.39919 10.6663 2.13669 12.0496 2.13669C13.433 2.13669 14.733 2.39919 15.9496 2.92419C17.1663 3.44919 18.2246 4.16169 19.1246 5.06169C20.0246 5.96169 20.7371 7.02002 21.2621 8.23669C21.7871 9.45335 22.0496 10.7534 22.0496 12.1367C22.0496 13.52 21.7871 14.82 21.2621 16.0367C20.7371 17.2534 20.0246 18.3117 19.1246 19.2117C18.2246 20.1117 17.1663 20.8242 15.9496 21.3492C14.733 21.8742 13.433 22.1367 12.0496 22.1367ZM12.0496 20.1367C14.283 20.1367 16.1746 19.3617 17.7246 17.8117C19.2746 16.2617 20.0496 14.37 20.0496 12.1367C20.0496 9.90335 19.2746 8.01169 17.7246 6.46169C16.1746 4.91169 14.283 4.13669 12.0496 4.13669C9.8163 4.13669 7.92464 4.91169 6.37464 6.46169C4.82464 8.01169 4.04964 9.90335 4.04964 12.1367C4.04964 14.37 4.82464 16.2617 6.37464 17.8117C7.92464 19.3617 9.8163 20.1367 12.0496 20.1367Z" fill="#ffffff"/>
</g>
</svg>
