<svg width="25" height="25" viewBox="0 0 25 25" fill="none" xmlns="http://www.w3.org/2000/svg">
<mask id="mask0_360_25" style="mask-type:alpha" maskUnits="userSpaceOnUse" x="0" y="0" width="25" height="25">
<rect x="0.47853" y="0.0971298" width="24" height="24" fill="#D9D9D9"/>
</mask>
<g mask="url(#mask0_360_25)">
<path d="M8.87853 17.0971L12.4785 13.4971L16.0785 17.0971L17.4785 15.6971L13.8785 12.0971L17.4785 8.49713L16.0785 7.09713L12.4785 10.6971L8.87853 7.09713L7.47853 8.49713L11.0785 12.0971L7.47853 15.6971L8.87853 17.0971ZM12.4785 22.0971C11.0952 22.0971 9.7952 21.8346 8.57853 21.3096C7.36186 20.7846 6.30353 20.0721 5.40353 19.1721C4.50353 18.2721 3.79103 17.2138 3.26603 15.9971C2.74103 14.7805 2.47853 13.4805 2.47853 12.0971C2.47853 10.7138 2.74103 9.4138 3.26603 8.19713C3.79103 6.98046 4.50353 5.92213 5.40353 5.02213C6.30353 4.12213 7.36186 3.40963 8.57853 2.88463C9.7952 2.35963 11.0952 2.09713 12.4785 2.09713C13.8619 2.09713 15.1619 2.35963 16.3785 2.88463C17.5952 3.40963 18.6535 4.12213 19.5535 5.02213C20.4535 5.92213 21.166 6.98046 21.691 8.19713C22.216 9.4138 22.4785 10.7138 22.4785 12.0971C22.4785 13.4805 22.216 14.7805 21.691 15.9971C21.166 17.2138 20.4535 18.2721 19.5535 19.1721C18.6535 20.0721 17.5952 20.7846 16.3785 21.3096C15.1619 21.8346 13.8619 22.0971 12.4785 22.0971Z" fill="#F87171"/>
</g>
</svg>
