<svg width="25" height="25" viewBox="0 0 25 25" fill="none" xmlns="http://www.w3.org/2000/svg">
<mask id="mask0_515_13" style="mask-type:alpha" maskUnits="userSpaceOnUse" x="0" y="0" width="25" height="25">
<rect x="0.462128" y="0.411507" width="24" height="24" fill="#D9D9D9"/>
</mask>
<g mask="url(#mask0_515_13)">
<path d="M6.46213 14.4115H14.4621V12.4115H6.46213V14.4115ZM6.46213 11.4115H18.4621V9.41151H6.46213V11.4115ZM6.46213 8.41151H18.4621V6.41151H6.46213V8.41151ZM2.46213 22.4115V4.41151C2.46213 3.86151 2.65796 3.39067 3.04963 2.99901C3.44129 2.60734 3.91213 2.41151 4.46213 2.41151H20.4621C21.0121 2.41151 21.483 2.60734 21.8746 2.99901C22.2663 3.39067 22.4621 3.86151 22.4621 4.41151V16.4115C22.4621 16.9615 22.2663 17.4323 21.8746 17.824C21.483 18.2157 21.0121 18.4115 20.4621 18.4115H6.46213L2.46213 22.4115ZM5.61213 16.4115H20.4621V4.41151H4.46213V17.5365L5.61213 16.4115Z" fill="#ffffff"/>
</g>
</svg>
