<svg width="25" height="25" viewBox="0 0 25 25" fill="none" xmlns="http://www.w3.org/2000/svg">
<mask id="mask0_360_13" style="mask-type:alpha" maskUnits="userSpaceOnUse" x="0" y="0" width="25" height="25">
<rect x="0.982578" y="0.742161" width="24" height="24" fill="#D9D9D9"/>
</mask>
<g mask="url(#mask0_360_13)">
<path d="M11.5826 17.3422L18.6326 10.2922L17.2326 8.89216L11.5826 14.5422L8.73258 11.6922L7.33258 13.0922L11.5826 17.3422ZM12.9826 22.7422C11.5992 22.7422 10.2992 22.4797 9.08258 21.9547C7.86591 21.4297 6.80758 20.7172 5.90758 19.8172C5.00758 18.9172 4.29508 17.8588 3.77008 16.6422C3.24508 15.4255 2.98258 14.1255 2.98258 12.7422C2.98258 11.3588 3.24508 10.0588 3.77008 8.84216C4.29508 7.62549 5.00758 6.56716 5.90758 5.66716C6.80758 4.76716 7.86591 4.05466 9.08258 3.52966C10.2992 3.00466 11.5992 2.74216 12.9826 2.74216C14.3659 2.74216 15.6659 3.00466 16.8826 3.52966C18.0992 4.05466 19.1576 4.76716 20.0576 5.66716C20.9576 6.56716 21.6701 7.62549 22.1951 8.84216C22.7201 10.0588 22.9826 11.3588 22.9826 12.7422C22.9826 14.1255 22.7201 15.4255 22.1951 16.6422C21.6701 17.8588 20.9576 18.9172 20.0576 19.8172C19.1576 20.7172 18.0992 21.4297 16.8826 21.9547C15.6659 22.4797 14.3659 22.7422 12.9826 22.7422Z" fill="#333333"/>
</g>
</svg>
