<svg width="16" height="17" viewBox="0 0 16 17" fill="none" xmlns="http://www.w3.org/2000/svg">
<mask id="mask0_537_261" style="mask-type:alpha" maskUnits="userSpaceOnUse" x="0" y="0" width="16" height="17">
<rect y="0.0999756" width="16" height="16" fill="#D9D9D9"/>
</mask>
<g mask="url(#mask0_537_261)">
<path d="M6.88 11.78L12.52 6.13998L11.4 5.01998L6.88 9.53998L4.6 7.25998L3.48 8.37998L6.88 11.78ZM8 16.1C6.89333 16.1 5.85333 15.89 4.88 15.47C3.90667 15.05 3.06 14.48 2.34 13.76C1.62 13.04 1.05 12.1933 0.63 11.22C0.21 10.2466 0 9.20664 0 8.09998C0 6.99331 0.21 5.95331 0.63 4.97998C1.05 4.00664 1.62 3.15998 2.34 2.43998C3.06 1.71998 3.90667 1.14998 4.88 0.729976C5.85333 0.309976 6.89333 0.0999756 8 0.0999756C9.10667 0.0999756 10.1467 0.309976 11.12 0.729976C12.0933 1.14998 12.94 1.71998 13.66 2.43998C14.38 3.15998 14.95 4.00664 15.37 4.97998C15.79 5.95331 16 6.99331 16 8.09998C16 9.20664 15.79 10.2466 15.37 11.22C14.95 12.1933 14.38 13.04 13.66 13.76C12.94 14.48 12.0933 15.05 11.12 15.47C10.1467 15.89 9.10667 16.1 8 16.1ZM8 14.5C9.78667 14.5 11.3 13.88 12.54 12.64C13.78 11.4 14.4 9.88664 14.4 8.09998C14.4 6.31331 13.78 4.79998 12.54 3.55998C11.3 2.31998 9.78667 1.69998 8 1.69998C6.21333 1.69998 4.7 2.31998 3.46 3.55998C2.22 4.79998 1.6 6.31331 1.6 8.09998C1.6 9.88664 2.22 11.4 3.46 12.64C4.7 13.88 6.21333 14.5 8 14.5Z" fill="#1C1B1F"/>
</g>
</svg>
