<svg width="16" height="17" viewBox="0 0 16 17" fill="none" xmlns="http://www.w3.org/2000/svg">
<mask id="mask0_538_292" style="mask-type:alpha" maskUnits="userSpaceOnUse" x="0" y="0" width="16" height="17">
<rect y="0.75" width="16" height="16" fill="#D9D9D9"/>
</mask>
<g mask="url(#mask0_538_292)">
<path d="M1.6 13.35V15.03H14.4V13.35H1.6ZM1.6 4.11H3.36C3.29333 3.984 3.25 3.851 3.23 3.711C3.21 3.571 3.2 3.424 3.2 3.27C3.2 2.57 3.43333 1.975 3.9 1.485C4.36667 0.995 4.93333 0.75 5.6 0.75C6 0.75 6.37 0.8585 6.71 1.0755C7.05 1.2925 7.34667 1.562 7.6 1.884L8 2.43L8.4 1.884C8.64 1.548 8.93333 1.275 9.28 1.065C9.62667 0.855 10 0.75 10.4 0.75C11.0667 0.75 11.6333 0.995 12.1 1.485C12.5667 1.975 12.8 2.57 12.8 3.27C12.8 3.424 12.79 3.571 12.77 3.711C12.75 3.851 12.7067 3.984 12.64 4.11H14.4C14.84 4.11 15.2167 4.2745 15.53 4.6035C15.8433 4.9325 16 5.328 16 5.79V15.03C16 15.492 15.8433 15.8875 15.53 16.2165C15.2167 16.5455 14.84 16.71 14.4 16.71H1.6C1.16 16.71 0.783333 16.5455 0.47 16.2165C0.156667 15.8875 0 15.492 0 15.03V5.79C0 5.328 0.156667 4.9325 0.47 4.6035C0.783333 4.2745 1.16 4.11 1.6 4.11ZM1.6 10.83H14.4V5.79H10.32L12 8.184L10.72 9.15L8 5.286L5.28 9.15L4 8.184L5.64 5.79H1.6V10.83ZM5.6 4.11C5.82667 4.11 6.01667 4.0295 6.17 3.8685C6.32333 3.7075 6.4 3.508 6.4 3.27C6.4 3.032 6.32333 2.8325 6.17 2.6715C6.01667 2.5105 5.82667 2.43 5.6 2.43C5.37333 2.43 5.18333 2.5105 5.03 2.6715C4.87667 2.8325 4.8 3.032 4.8 3.27C4.8 3.508 4.87667 3.7075 5.03 3.8685C5.18333 4.0295 5.37333 4.11 5.6 4.11ZM10.4 4.11C10.6267 4.11 10.8167 4.0295 10.97 3.8685C11.1233 3.7075 11.2 3.508 11.2 3.27C11.2 3.032 11.1233 2.8325 10.97 2.6715C10.8167 2.5105 10.6267 2.43 10.4 2.43C10.1733 2.43 9.98333 2.5105 9.83 2.6715C9.67667 2.8325 9.6 3.032 9.6 3.27C9.6 3.508 9.67667 3.7075 9.83 3.8685C9.98333 4.0295 10.1733 4.11 10.4 4.11Z" fill="#1C1B1F"/>
</g>
</svg>
