<svg width="25" height="25" viewBox="0 0 25 25" fill="none" xmlns="http://www.w3.org/2000/svg">
<mask id="mask0_515_7" style="mask-type:alpha" maskUnits="userSpaceOnUse" x="0" y="0" width="25" height="25">
<rect x="0.677422" y="0.746544" width="24" height="24" fill="#D9D9D9"/>
</mask>
<g mask="url(#mask0_515_7)">
<path d="M6.67742 22.7465C5.84409 22.7465 5.13575 22.4549 4.55242 21.8715C3.96909 21.2882 3.67742 20.5799 3.67742 19.7465V16.7465H6.67742V2.74654H21.6774V19.7465C21.6774 20.5799 21.3858 21.2882 20.8024 21.8715C20.2191 22.4549 19.5108 22.7465 18.6774 22.7465H6.67742ZM18.6774 20.7465C18.9608 20.7465 19.1983 20.6507 19.3899 20.459C19.5816 20.2674 19.6774 20.0299 19.6774 19.7465V4.74654H8.67742V16.7465H17.6774V19.7465C17.6774 20.0299 17.7733 20.2674 17.9649 20.459C18.1566 20.6507 18.3941 20.7465 18.6774 20.7465ZM9.67742 9.74654V7.74654H18.6774V9.74654H9.67742ZM9.67742 12.7465V10.7465H18.6774V12.7465H9.67742ZM6.67742 20.7465H15.6774V18.7465H5.67742V19.7465C5.67742 20.0299 5.77326 20.2674 5.96492 20.459C6.15659 20.6507 6.39409 20.7465 6.67742 20.7465ZM6.67742 20.7465H5.67742H15.6774H6.67742Z" fill="#ffffff"/>
</g>
</svg>
