<svg width="385" height="232" viewBox="0 0 385 232" fill="none" xmlns="http://www.w3.org/2000/svg">
<path d="M72.8 93.2C65.4667 93.2 59.0667 91.7333 53.6 88.8C48.2 85.8667 44.0667 81.9 41.2 76.9C38.3333 71.9 36.9 66.4 36.9 60.4C36.9 53.9333 38.5333 48.3 41.8 43.5C45.0667 38.6333 49.5333 34.9 55.2 32.3C60.9333 29.7 67.3333 28.4 74.4 28.4C77.9333 28.4 81.2667 28.7333 84.4 29.4C87.5333 30.0667 90.1333 31.0333 92.2 32.3C92.7333 32.5667 93.0333 32.8 93.1 33C93.1667 33.2 93.2333 33.7 93.3 34.5L94.5 46.3C94.5 46.5 94.3 46.6333 93.9 46.7C93.5667 46.7667 93.3667 46.6667 93.3 46.4C90.2333 35.4667 83.3 30 72.5 30C67.2333 30 62.4667 31.2 58.2 33.6C54 35.9333 50.6667 39.3 48.2 43.7C45.8 48.0333 44.6 53.1 44.6 58.9C44.6 64.5667 45.7667 69.9 48.1 74.9C50.4333 79.9 53.9333 83.9667 58.6 87.1C63.2667 90.1667 68.9 91.7 75.5 91.7C80.2333 91.7 83.5667 90.8 85.5 89C87.4333 87.1333 88.4 83.9667 88.4 79.5C88.4 76.0333 88.1667 73.6333 87.7 72.3C87.3 70.9 86.3333 69.9667 84.8 69.5C83.3333 69.0333 80.7333 68.8 77 68.8C76.6 68.8 76.4 68.5333 76.4 68C76.4 67.8 76.4333 67.6333 76.5 67.5C76.6333 67.3 76.7667 67.2 76.9 67.2C82.1 67.5333 86.3 67.7 89.5 67.7C92.5667 67.7 95.8667 67.6 99.4 67.4C99.5333 67.4 99.6333 67.5 99.7 67.7C99.8333 67.8333 99.9 67.9667 99.9 68.1C99.9 68.5667 99.7333 68.8 99.4 68.8C97.7333 68.7333 96.5667 68.9667 95.9 69.5C95.3 69.9667 94.9 70.9667 94.7 72.5C94.5 73.9667 94.4 76.6333 94.4 80.5C94.4 83.5 94.5 85.6333 94.7 86.9C94.9667 88.1667 95.1 88.9667 95.1 89.3C95.1 89.7 95.0333 89.9667 94.9 90.1C94.7667 90.2333 94.4667 90.3667 94 90.5C85.7333 92.3 78.6667 93.2 72.8 93.2ZM152.087 86.3C152.353 86.3 152.52 86.4667 152.587 86.8C152.72 87.0667 152.653 87.2667 152.387 87.4L140.687 92.9L140.287 93C139.62 93 138.987 92.2333 138.387 90.7C137.787 89.1667 137.487 87.1667 137.487 84.7V84.3C134.887 87.2333 132.287 89.4 129.687 90.8C127.087 92.1333 124.387 92.8 121.587 92.8C118.253 92.8 115.653 91.7667 113.787 89.7C111.92 87.5667 110.987 84.5 110.987 80.5V65.2C110.987 62.6 110.753 60.7333 110.287 59.6C109.82 58.4 109.053 57.8 107.987 57.8C107.053 57.8 105.92 58.1333 104.587 58.8H104.487C104.22 58.8 104.02 58.6333 103.887 58.3C103.753 57.9 103.82 57.6667 104.087 57.6L115.187 52.6L115.587 52.5C115.787 52.5 115.987 52.6 116.187 52.8C116.453 52.9333 116.587 53.1 116.587 53.3V77.2C116.587 84.9333 119.387 88.8 124.987 88.8C127.12 88.8 129.287 88.2667 131.487 87.2C133.687 86.0667 135.687 84.5333 137.487 82.6V65.2C137.487 62.5333 137.253 60.6333 136.787 59.5C136.387 58.3667 135.62 57.8 134.487 57.8C133.553 57.8 132.42 58.1333 131.087 58.8H130.987C130.72 58.8 130.52 58.6333 130.387 58.3C130.32 57.9 130.42 57.6667 130.687 57.6L141.787 52.6L142.087 52.5C142.287 52.5 142.487 52.6 142.687 52.8C142.953 52.9333 143.087 53.1 143.087 53.3V81.3C143.087 83.5667 143.353 85.2 143.887 86.2C144.42 87.2 145.32 87.7 146.587 87.7C147.72 87.7 149.487 87.2333 151.887 86.3H152.087ZM162.803 59.5C162.803 61.8333 163.57 63.7 165.103 65.1C166.636 66.4333 168.87 67.8667 171.803 69.4C174.136 70.6 175.936 71.6333 177.203 72.5C178.536 73.3667 179.67 74.5 180.603 75.9C181.536 77.3 182.003 79 182.003 81C182.003 84.4 180.736 87.2667 178.203 89.6C175.67 91.9333 172.236 93.1 167.903 93.1C164.37 93.1 161.17 92.1 158.303 90.1C157.903 89.8333 157.703 89.4333 157.703 88.9L157.503 81.1C157.503 80.9 157.67 80.8 158.003 80.8C158.403 80.7333 158.636 80.8 158.703 81C159.97 84.3333 161.603 86.8667 163.603 88.6C165.67 90.3333 168.036 91.2 170.703 91.2C172.903 91.2 174.57 90.6667 175.703 89.6C176.836 88.5333 177.336 86.9667 177.203 84.9C177.136 82.3667 176.336 80.4333 174.803 79.1C173.336 77.7 171.103 76.2667 168.103 74.8C165.903 73.7333 164.136 72.7667 162.803 71.9C161.536 71.0333 160.436 69.9 159.503 68.5C158.636 67.1 158.203 65.3667 158.203 63.3C158.203 59.7 159.536 56.9667 162.203 55.1C164.936 53.1667 168.136 52.2 171.803 52.2C174.47 52.2 176.903 52.7 179.103 53.7C179.503 53.8333 179.736 54 179.803 54.2C179.936 54.3333 180.003 54.5333 180.003 54.8C180.003 56.1333 179.97 57.1667 179.903 57.9L179.803 62.1C179.803 62.2333 179.603 62.3 179.203 62.3C178.803 62.3 178.603 62.2333 178.603 62.1C178.603 60.7 178.07 59.4 177.003 58.2C175.936 56.9333 174.603 55.9333 173.003 55.2C171.403 54.4667 169.803 54.1 168.203 54.1C166.536 54.1 165.203 54.5667 164.203 55.5C163.27 56.3667 162.803 57.7 162.803 59.5ZM217.592 86.8C217.859 86.8 218.059 86.9667 218.192 87.3C218.326 87.5667 218.292 87.7667 218.092 87.9C215.626 89.8333 213.392 91.2 211.392 92C209.459 92.8 207.426 93.2 205.292 93.2C202.492 93.2 200.192 92.5667 198.392 91.3C196.592 90.0333 195.692 87.9333 195.692 85V61.5C195.692 59.7667 195.559 58.5333 195.292 57.8C195.092 57.0667 194.659 56.6 193.992 56.4C193.326 56.1333 192.192 56 190.592 56C190.326 56 190.192 55.8 190.192 55.4C190.192 54.9333 190.326 54.7 190.592 54.7C193.259 54.6333 195.426 53.9333 197.092 52.6C198.759 51.2 199.726 49.3667 199.992 47.1C199.992 46.9 200.259 46.8 200.792 46.8C201.259 46.8 201.492 46.9 201.492 47.1V54.5C204.826 54.4333 209.459 54.1 215.392 53.5C215.526 53.5 215.659 53.7667 215.792 54.3C215.992 54.7667 216.092 55.3 216.092 55.9C216.092 56.4333 215.959 57 215.692 57.6C215.492 58.1333 215.259 58.3667 214.992 58.3C211.326 57.3667 206.826 56.8333 201.492 56.7V81.6C201.492 84.3333 202.159 86.3667 203.492 87.7C204.892 89.0333 206.859 89.7 209.392 89.7C212.326 89.7 214.992 88.7667 217.392 86.9L217.592 86.8ZM261.781 86.6C262.048 86.6 262.215 86.7667 262.281 87.1C262.348 87.3667 262.248 87.5667 261.981 87.7L251.681 92.6C251.415 92.7333 251.148 92.8 250.881 92.8C250.015 92.8 249.248 92.2333 248.581 91.1C247.915 89.9 247.481 88.3 247.281 86.3L242.081 89.7C240.415 90.7667 238.948 91.5333 237.681 92C236.415 92.4667 235.081 92.7 233.681 92.7C231.215 92.7 229.281 92.0667 227.881 90.8C226.548 89.4667 225.881 87.8 225.881 85.8C225.881 83.8 226.681 82.0667 228.281 80.6C229.881 79.1333 232.515 77.7333 236.181 76.4L247.181 72.3V65.5C247.181 58.0333 245.081 54.3 240.881 54.3C238.615 54.3 236.881 55.0667 235.681 56.6C234.548 58.0667 233.781 59.7667 233.381 61.7C233.181 62.9 232.815 63.9 232.281 64.7C231.748 65.4333 230.848 65.8 229.581 65.8C228.515 65.8 227.681 65.5 227.081 64.9C226.548 64.3 226.281 63.6 226.281 62.8C226.281 61.2 227.315 59.6 229.381 58C231.448 56.4 233.915 55.0667 236.781 54C239.648 52.9333 242.215 52.4 244.481 52.4C247.215 52.4 249.281 53.2667 250.681 55C252.081 56.7333 252.781 59.2333 252.781 62.5V81.2C252.781 83.5333 253.081 85.2333 253.681 86.3C254.281 87.3667 255.281 87.9 256.681 87.9C257.948 87.9 259.581 87.4667 261.581 86.6H261.781ZM247.181 84.9V84.4V73.7L237.881 77.3C236.015 78.0333 234.648 78.9 233.781 79.9C232.981 80.8333 232.581 81.9667 232.581 83.3C232.581 84.9 233.081 86.2667 234.081 87.4C235.148 88.4667 236.515 89 238.181 89C239.515 89 241.115 88.4667 242.981 87.4L247.181 84.9ZM304.104 53.4C304.237 53.4 304.304 53.6 304.304 54C304.304 54.4 304.237 54.6 304.104 54.6C302.437 54.6 301.004 55.1667 299.804 56.3C298.604 57.3667 297.471 59.2333 296.404 61.9L283.904 91.9C283.771 92.2333 283.404 92.4 282.804 92.4C282.204 92.4 281.837 92.2333 281.704 91.9L267.704 61.7C266.371 58.8333 265.237 56.9333 264.304 56C263.437 55.0667 262.337 54.6 261.004 54.6C260.804 54.6 260.704 54.4 260.704 54C260.704 53.6 260.804 53.4 261.004 53.4C262.337 53.4 263.371 53.4333 264.104 53.5L267.904 53.6L274.404 53.5C275.404 53.4333 276.737 53.4 278.404 53.4C278.604 53.4 278.704 53.6 278.704 54C278.704 54.4 278.604 54.6 278.404 54.6C274.404 54.6 272.404 55.4 272.404 57C272.404 57.4667 272.537 57.9667 272.804 58.5L285.004 84.3L294.404 61.4C294.871 60.1333 295.104 59.1667 295.104 58.5C295.104 57.1667 294.471 56.2 293.204 55.6C291.937 54.9333 289.937 54.6 287.204 54.6C287.071 54.6 287.004 54.4 287.004 54C287.004 53.6 287.071 53.4 287.204 53.4C289.004 53.4 290.371 53.4333 291.304 53.5L297.304 53.6L300.904 53.5C301.571 53.4333 302.637 53.4 304.104 53.4ZM327.463 93.3C323.597 93.3 320.163 92.3667 317.163 90.5C314.23 88.5667 311.963 86 310.363 82.8C308.763 79.5333 307.963 76 307.963 72.2C307.963 67.8667 308.997 64.2 311.063 61.2C313.197 58.1333 315.897 55.8667 319.163 54.4C322.497 52.8667 325.863 52.1 329.263 52.1C333.197 52.1 336.63 53.0667 339.563 55C342.497 56.9333 344.73 59.5 346.263 62.7C347.863 65.8333 348.663 69.1667 348.663 72.7C348.663 76.8333 347.697 80.4667 345.763 83.6C343.83 86.6667 341.23 89.0667 337.963 90.8C334.763 92.4667 331.263 93.3 327.463 93.3ZM330.363 91.4C334.03 91.4 336.863 90.1 338.863 87.5C340.863 84.9 341.863 80.9 341.863 75.5C341.863 71.3667 341.163 67.6667 339.763 64.4C338.43 61.1333 336.563 58.6 334.163 56.8C331.763 54.9333 329.03 54 325.963 54C322.363 54 319.563 55.3 317.563 57.9C315.63 60.5 314.663 64.2333 314.663 69.1C314.663 73.1667 315.33 76.9 316.663 80.3C317.997 83.7 319.863 86.4 322.263 88.4C324.663 90.4 327.363 91.4 330.363 91.4Z" fill="#2C2C2C"/>
<path d="M126.9 201.8C127.167 201.8 127.3 202 127.3 202.4C127.3 202.8 127.167 203 126.9 203C125.633 203 123.667 202.933 121 202.8C118.333 202.667 116.4 202.6 115.2 202.6C113.733 202.6 111.867 202.667 109.6 202.8C107.467 202.933 105.833 203 104.7 203C104.433 203 104.3 202.8 104.3 202.4C104.3 202 104.433 201.8 104.7 201.8C107.167 201.8 108.967 201.567 110.1 201.1C111.233 200.633 111.8 199.833 111.8 198.7C111.8 197.767 111.367 196.333 110.5 194.4L101.6 175.5H77.8L71.5 190.3C70.5667 192.567 70.1 194.4 70.1 195.8C70.1 197.867 70.9 199.4 72.5 200.4C74.1667 201.333 76.6333 201.8 79.9 201.8C80.2333 201.8 80.4 202 80.4 202.4C80.4 202.8 80.2333 203 79.9 203C78.7 203 76.9667 202.933 74.7 202.8C72.1667 202.667 69.9667 202.6 68.1 202.6C66.3667 202.6 64.3667 202.667 62.1 202.8C60.1 202.933 58.4333 203 57.1 203C56.7667 203 56.6 202.8 56.6 202.4C56.6 202 56.7667 201.8 57.1 201.8C58.9667 201.8 60.5333 201.467 61.8 200.8C63.1333 200.067 64.3667 198.833 65.5 197.1C66.7 195.3 68 192.733 69.4 189.4L90.5 139.6C90.6333 139.4 90.8667 139.3 91.2 139.3C91.5333 139.3 91.7333 139.4 91.8 139.6L115.4 189.3C117.667 194.233 119.6 197.567 121.2 199.3C122.8 200.967 124.7 201.8 126.9 201.8ZM78.6 173.5H100.7L89 148.8L78.6 173.5ZM201.415 201.8C201.682 201.8 201.815 202 201.815 202.4C201.815 202.8 201.682 203 201.415 203C199.882 203 198.648 202.967 197.715 202.9L192.315 202.8L186.915 202.9C185.982 202.967 184.748 203 183.215 203C183.015 203 182.915 202.8 182.915 202.4C182.915 202 183.015 201.8 183.215 201.8C185.015 201.8 186.348 201.633 187.215 201.3C188.082 200.9 188.682 200.233 189.015 199.3C189.348 198.3 189.515 196.833 189.515 194.9V179C189.515 175.067 188.815 172.167 187.415 170.3C186.015 168.367 183.848 167.4 180.915 167.4C178.915 167.4 176.882 167.967 174.815 169.1C172.815 170.167 170.948 171.7 169.215 173.7C169.282 174.033 169.315 174.567 169.315 175.3V194.9C169.315 196.9 169.482 198.367 169.815 199.3C170.148 200.233 170.748 200.9 171.615 201.3C172.482 201.633 173.815 201.8 175.615 201.8C175.815 201.8 175.915 202 175.915 202.4C175.915 202.8 175.815 203 175.615 203C174.082 203 172.848 202.967 171.915 202.9L166.515 202.8L161.015 202.9C160.148 202.967 158.948 203 157.415 203C157.215 203 157.115 202.8 157.115 202.4C157.115 202 157.215 201.8 157.415 201.8C159.215 201.8 160.548 201.633 161.415 201.3C162.282 200.9 162.848 200.233 163.115 199.3C163.448 198.367 163.615 196.9 163.615 194.9V179C163.615 175.067 162.915 172.167 161.515 170.3C160.115 168.367 157.982 167.4 155.115 167.4C153.115 167.4 151.115 167.933 149.115 169C147.115 170.067 145.282 171.567 143.615 173.5V194.9C143.615 196.9 143.748 198.367 144.015 199.3C144.348 200.233 144.948 200.9 145.815 201.3C146.682 201.633 148.015 201.8 149.815 201.8C150.015 201.8 150.115 202 150.115 202.4C150.115 202.8 150.015 203 149.815 203C148.282 203 147.082 202.967 146.215 202.9L140.815 202.8L135.315 202.9C134.448 202.967 133.248 203 131.715 203C131.515 203 131.415 202.8 131.415 202.4C131.415 202 131.515 201.8 131.715 201.8C133.515 201.8 134.848 201.633 135.715 201.3C136.582 200.9 137.148 200.233 137.415 199.3C137.748 198.367 137.915 196.9 137.915 194.9V175.1C137.915 172.833 137.648 171.2 137.115 170.2C136.582 169.2 135.682 168.7 134.415 168.7C133.348 168.7 131.548 169.2 129.015 170.2H128.815C128.548 170.2 128.348 170.067 128.215 169.8C128.148 169.467 128.248 169.233 128.515 169.1L140.115 163.6L140.715 163.5C141.315 163.5 141.948 164.267 142.615 165.8C143.282 167.333 143.615 169.3 143.615 171.7V171.8C146.015 168.867 148.415 166.733 150.815 165.4C153.215 164.067 155.715 163.4 158.315 163.4C161.315 163.4 163.748 164.133 165.615 165.6C167.482 167.067 168.648 169.267 169.115 172.2C171.582 169.2 174.048 167 176.515 165.6C178.982 164.133 181.548 163.4 184.215 163.4C187.748 163.4 190.448 164.433 192.315 166.5C194.248 168.5 195.215 171.5 195.215 175.5V194.9C195.215 196.9 195.348 198.367 195.615 199.3C195.948 200.233 196.548 200.9 197.415 201.3C198.282 201.633 199.615 201.8 201.415 201.8ZM244.984 197.6C245.251 197.6 245.418 197.767 245.484 198.1C245.551 198.367 245.451 198.567 245.184 198.7L234.884 203.6C234.618 203.733 234.351 203.8 234.084 203.8C233.218 203.8 232.451 203.233 231.784 202.1C231.118 200.9 230.684 199.3 230.484 197.3L225.284 200.7C223.618 201.767 222.151 202.533 220.884 203C219.618 203.467 218.284 203.7 216.884 203.7C214.418 203.7 212.484 203.067 211.084 201.8C209.751 200.467 209.084 198.8 209.084 196.8C209.084 194.8 209.884 193.067 211.484 191.6C213.084 190.133 215.718 188.733 219.384 187.4L230.384 183.3V176.5C230.384 169.033 228.284 165.3 224.084 165.3C221.818 165.3 220.084 166.067 218.884 167.6C217.751 169.067 216.984 170.767 216.584 172.7C216.384 173.9 216.018 174.9 215.484 175.7C214.951 176.433 214.051 176.8 212.784 176.8C211.718 176.8 210.884 176.5 210.284 175.9C209.751 175.3 209.484 174.6 209.484 173.8C209.484 172.2 210.518 170.6 212.584 169C214.651 167.4 217.118 166.067 219.984 165C222.851 163.933 225.418 163.4 227.684 163.4C230.418 163.4 232.484 164.267 233.884 166C235.284 167.733 235.984 170.233 235.984 173.5V192.2C235.984 194.533 236.284 196.233 236.884 197.3C237.484 198.367 238.484 198.9 239.884 198.9C241.151 198.9 242.784 198.467 244.784 197.6H244.984ZM230.384 195.9V195.4V184.7L221.084 188.3C219.218 189.033 217.851 189.9 216.984 190.9C216.184 191.833 215.784 192.967 215.784 194.3C215.784 195.9 216.284 197.267 217.284 198.4C218.351 199.467 219.718 200 221.384 200C222.718 200 224.318 199.467 226.184 198.4L230.384 195.9ZM272.879 163.5C274.346 163.5 275.746 163.9 277.079 164.7C278.412 165.5 279.079 166.467 279.079 167.6C279.079 168.467 278.779 169.2 278.179 169.8C277.646 170.4 276.846 170.7 275.779 170.7C275.179 170.7 274.646 170.6 274.179 170.4C273.779 170.133 273.279 169.767 272.679 169.3C272.079 168.767 271.512 168.367 270.979 168.1C270.446 167.833 269.812 167.7 269.079 167.7C268.212 167.7 267.279 168.067 266.279 168.8C265.346 169.533 263.846 171.1 261.779 173.5V194.9C261.779 196.9 262.012 198.367 262.479 199.3C263.012 200.233 263.946 200.9 265.279 201.3C266.612 201.633 268.679 201.8 271.479 201.8C271.746 201.8 271.879 202 271.879 202.4C271.879 202.8 271.746 203 271.479 203C269.346 203 267.646 202.967 266.379 202.9L258.979 202.8L253.479 202.9C252.612 202.967 251.412 203 249.879 203C249.679 203 249.579 202.8 249.579 202.4C249.579 202 249.679 201.8 249.879 201.8C251.679 201.8 253.012 201.633 253.879 201.3C254.746 200.9 255.312 200.233 255.579 199.3C255.912 198.367 256.079 196.9 256.079 194.9V175.1C256.079 172.833 255.812 171.2 255.279 170.2C254.746 169.2 253.846 168.7 252.579 168.7C251.512 168.7 249.712 169.2 247.179 170.2H246.979C246.712 170.2 246.512 170.067 246.379 169.8C246.312 169.467 246.412 169.233 246.679 169.1L258.279 163.6L258.879 163.5C259.479 163.5 260.112 164.267 260.779 165.8C261.446 167.333 261.779 169.3 261.779 171.7V171.8C264.512 168.6 266.679 166.433 268.279 165.3C269.879 164.1 271.412 163.5 272.879 163.5ZM303.733 204.3C299.866 204.3 296.433 203.367 293.433 201.5C290.499 199.567 288.233 197 286.633 193.8C285.033 190.533 284.233 187 284.233 183.2C284.233 178.867 285.266 175.2 287.333 172.2C289.466 169.133 292.166 166.867 295.433 165.4C298.766 163.867 302.133 163.1 305.533 163.1C309.466 163.1 312.899 164.067 315.833 166C318.766 167.933 320.999 170.5 322.533 173.7C324.133 176.833 324.933 180.167 324.933 183.7C324.933 187.833 323.966 191.467 322.033 194.6C320.099 197.667 317.499 200.067 314.233 201.8C311.033 203.467 307.533 204.3 303.733 204.3ZM306.633 202.4C310.299 202.4 313.133 201.1 315.133 198.5C317.133 195.9 318.133 191.9 318.133 186.5C318.133 182.367 317.433 178.667 316.033 175.4C314.699 172.133 312.833 169.6 310.433 167.8C308.033 165.933 305.299 165 302.233 165C298.633 165 295.833 166.3 293.833 168.9C291.899 171.5 290.933 175.233 290.933 180.1C290.933 184.167 291.599 187.9 292.933 191.3C294.266 194.7 296.133 197.4 298.533 199.4C300.933 201.4 303.633 202.4 306.633 202.4Z" fill="#2C2C2C"/>
<rect y="189" width="32" height="2" fill="#2C2C2C"/>
<rect x="2" y="61" width="11" height="2" fill="#2C2C2C"/>
<rect y="61" width="2" height="128" fill="#2C2C2C"/>
<rect width="32" height="2" transform="matrix(-1 0 0 1 385 189)" fill="#2C2C2C"/>
<rect width="11" height="2" transform="matrix(-1 0 0 1 383 61)" fill="#2C2C2C"/>
<rect width="2" height="128" transform="matrix(-1 0 0 1 385 61)" fill="#2C2C2C"/>
</svg>
