<svg width="614" height="290" viewBox="0 0 614 290" fill="none" xmlns="http://www.w3.org/2000/svg">
<path d="M48.96 112.44C40.16 112.44 32.48 110.68 25.92 107.16C19.44 103.64 14.48 98.88 11.04 92.88C7.6 86.88 5.88 80.28 5.88 73.08C5.88 65.32 7.84 58.56 11.76 52.8C15.68 46.96 21.04 42.48 27.84 39.36C34.72 36.24 42.4 34.68 50.88 34.68C55.12 34.68 59.12 35.08 62.88 35.88C66.64 36.68 69.76 37.84 72.24 39.36C72.88 39.68 73.24 39.96 73.32 40.2C73.4 40.44 73.48 41.04 73.56 42L75 56.16C75 56.4 74.76 56.56 74.28 56.64C73.88 56.72 73.64 56.6 73.56 56.28C69.88 43.16 61.56 36.6 48.6 36.6C42.28 36.6 36.56 38.04 31.44 40.92C26.4 43.72 22.4 47.76 19.44 53.04C16.56 58.24 15.12 64.32 15.12 71.28C15.12 78.08 16.52 84.48 19.32 90.48C22.12 96.48 26.32 101.36 31.92 105.12C37.52 108.8 44.28 110.64 52.2 110.64C57.88 110.64 61.88 109.56 64.2 107.4C66.52 105.16 67.68 101.36 67.68 96C67.68 91.84 67.4 88.96 66.84 87.36C66.36 85.68 65.2 84.56 63.36 84C61.6 83.44 58.48 83.16 54 83.16C53.52 83.16 53.28 82.84 53.28 82.2C53.28 81.96 53.32 81.76 53.4 81.6C53.56 81.36 53.72 81.24 53.88 81.24C60.12 81.64 65.16 81.84 69 81.84C72.68 81.84 76.64 81.72 80.88 81.48C81.04 81.48 81.16 81.6 81.24 81.84C81.4 82 81.48 82.16 81.48 82.32C81.48 82.88 81.28 83.16 80.88 83.16C78.88 83.08 77.48 83.36 76.68 84C75.96 84.56 75.48 85.76 75.24 87.6C75 89.36 74.88 92.56 74.88 97.2C74.88 100.8 75 103.36 75.24 104.88C75.56 106.4 75.72 107.36 75.72 107.76C75.72 108.24 75.64 108.56 75.48 108.72C75.32 108.88 74.96 109.04 74.4 109.2C64.48 111.36 56 112.44 48.96 112.44ZM144.104 104.16C144.424 104.16 144.624 104.36 144.704 104.76C144.864 105.08 144.784 105.32 144.464 105.48L130.424 112.08L129.944 112.2C129.144 112.2 128.384 111.28 127.664 109.44C126.944 107.6 126.584 105.2 126.584 102.24V101.76C123.464 105.28 120.344 107.88 117.224 109.56C114.104 111.16 110.864 111.96 107.504 111.96C103.504 111.96 100.384 110.72 98.1441 108.24C95.9041 105.68 94.7841 102 94.7841 97.2V78.84C94.7841 75.72 94.5041 73.48 93.9441 72.12C93.3841 70.68 92.4641 69.96 91.1841 69.96C90.0641 69.96 88.7041 70.36 87.1041 71.16H86.9841C86.6641 71.16 86.4241 70.96 86.2641 70.56C86.1041 70.08 86.1841 69.8 86.5041 69.72L99.8241 63.72L100.304 63.6C100.544 63.6 100.784 63.72 101.024 63.96C101.344 64.12 101.504 64.32 101.504 64.56V93.24C101.504 102.52 104.864 107.16 111.584 107.16C114.144 107.16 116.744 106.52 119.384 105.24C122.024 103.88 124.424 102.04 126.584 99.72V78.84C126.584 75.64 126.304 73.36 125.744 72C125.264 70.64 124.344 69.96 122.984 69.96C121.864 69.96 120.504 70.36 118.904 71.16H118.784C118.464 71.16 118.224 70.96 118.064 70.56C117.984 70.08 118.104 69.8 118.424 69.72L131.744 63.72L132.104 63.6C132.344 63.6 132.584 63.72 132.824 63.96C133.144 64.12 133.304 64.32 133.304 64.56V98.16C133.304 100.88 133.624 102.84 134.264 104.04C134.904 105.24 135.984 105.84 137.504 105.84C138.864 105.84 140.984 105.28 143.864 104.16H144.104ZM156.964 72C156.964 74.8 157.884 77.04 159.724 78.72C161.564 80.32 164.244 82.04 167.764 83.88C170.564 85.32 172.724 86.56 174.244 87.6C175.844 88.64 177.204 90 178.324 91.68C179.444 93.36 180.004 95.4 180.004 97.8C180.004 101.88 178.484 105.32 175.444 108.12C172.404 110.92 168.284 112.32 163.084 112.32C158.844 112.32 155.004 111.12 151.564 108.72C151.084 108.4 150.844 107.92 150.844 107.28L150.604 97.92C150.604 97.68 150.804 97.56 151.204 97.56C151.684 97.48 151.964 97.56 152.044 97.8C153.564 101.8 155.524 104.84 157.924 106.92C160.404 109 163.244 110.04 166.444 110.04C169.084 110.04 171.084 109.4 172.444 108.12C173.804 106.84 174.404 104.96 174.244 102.48C174.164 99.44 173.204 97.12 171.364 95.52C169.604 93.84 166.924 92.12 163.324 90.36C160.684 89.08 158.564 87.92 156.964 86.88C155.444 85.84 154.124 84.48 153.004 82.8C151.964 81.12 151.444 79.04 151.444 76.56C151.444 72.24 153.044 68.96 156.244 66.72C159.524 64.4 163.364 63.24 167.764 63.24C170.964 63.24 173.884 63.84 176.524 65.04C177.004 65.2 177.284 65.4 177.364 65.64C177.524 65.8 177.604 66.04 177.604 66.36C177.604 67.96 177.564 69.2 177.484 70.08L177.364 75.12C177.364 75.28 177.124 75.36 176.644 75.36C176.164 75.36 175.924 75.28 175.924 75.12C175.924 73.44 175.284 71.88 174.004 70.44C172.724 68.92 171.124 67.72 169.204 66.84C167.284 65.96 165.364 65.52 163.444 65.52C161.444 65.52 159.844 66.08 158.644 67.2C157.524 68.24 156.964 69.84 156.964 72ZM222.711 104.76C223.031 104.76 223.271 104.96 223.431 105.36C223.591 105.68 223.551 105.92 223.311 106.08C220.351 108.4 217.671 110.04 215.271 111C212.951 111.96 210.511 112.44 207.951 112.44C204.591 112.44 201.831 111.68 199.671 110.16C197.511 108.64 196.431 106.12 196.431 102.6V74.4C196.431 72.32 196.271 70.84 195.951 69.96C195.711 69.08 195.191 68.52 194.391 68.28C193.591 67.96 192.231 67.8 190.311 67.8C189.991 67.8 189.831 67.56 189.831 67.08C189.831 66.52 189.991 66.24 190.311 66.24C193.511 66.16 196.111 65.32 198.111 63.72C200.111 62.04 201.271 59.84 201.591 57.12C201.591 56.88 201.911 56.76 202.551 56.76C203.111 56.76 203.391 56.88 203.391 57.12V66C207.391 65.92 212.951 65.52 220.071 64.8C220.231 64.8 220.391 65.12 220.551 65.76C220.791 66.32 220.911 66.96 220.911 67.68C220.911 68.32 220.751 69 220.431 69.72C220.191 70.36 219.911 70.64 219.591 70.56C215.191 69.44 209.791 68.8 203.391 68.64V98.52C203.391 101.8 204.191 104.24 205.791 105.84C207.471 107.44 209.831 108.24 212.871 108.24C216.391 108.24 219.591 107.12 222.471 104.88L222.711 104.76ZM275.738 104.52C276.058 104.52 276.258 104.72 276.338 105.12C276.418 105.44 276.298 105.68 275.978 105.84L263.618 111.72C263.298 111.88 262.978 111.96 262.658 111.96C261.618 111.96 260.698 111.28 259.898 109.92C259.098 108.48 258.578 106.56 258.338 104.16L252.098 108.24C250.098 109.52 248.338 110.44 246.818 111C245.298 111.56 243.698 111.84 242.018 111.84C239.058 111.84 236.738 111.08 235.058 109.56C233.458 107.96 232.658 105.96 232.658 103.56C232.658 101.16 233.618 99.08 235.538 97.32C237.458 95.56 240.618 93.88 245.018 92.28L258.218 87.36V79.2C258.218 70.24 255.698 65.76 250.658 65.76C247.938 65.76 245.858 66.68 244.418 68.52C243.058 70.28 242.138 72.32 241.658 74.64C241.418 76.08 240.978 77.28 240.338 78.24C239.698 79.12 238.618 79.56 237.098 79.56C235.818 79.56 234.818 79.2 234.098 78.48C233.458 77.76 233.138 76.92 233.138 75.96C233.138 74.04 234.378 72.12 236.858 70.2C239.338 68.28 242.298 66.68 245.738 65.4C249.178 64.12 252.258 63.48 254.978 63.48C258.258 63.48 260.738 64.52 262.418 66.6C264.098 68.68 264.938 71.68 264.938 75.6V98.04C264.938 100.84 265.298 102.88 266.018 104.16C266.738 105.44 267.938 106.08 269.618 106.08C271.138 106.08 273.098 105.56 275.498 104.52H275.738ZM258.218 102.48V101.88V89.04L247.058 93.36C244.818 94.24 243.178 95.28 242.138 96.48C241.178 97.6 240.698 98.96 240.698 100.56C240.698 102.48 241.298 104.12 242.498 105.48C243.778 106.76 245.418 107.4 247.418 107.4C249.018 107.4 250.938 106.76 253.178 105.48L258.218 102.48ZM326.525 64.68C326.685 64.68 326.765 64.92 326.765 65.4C326.765 65.88 326.685 66.12 326.525 66.12C324.525 66.12 322.805 66.8 321.365 68.16C319.925 69.44 318.565 71.68 317.285 74.88L302.285 110.88C302.125 111.28 301.685 111.48 300.965 111.48C300.245 111.48 299.805 111.28 299.645 110.88L282.845 74.64C281.245 71.2 279.885 68.92 278.765 67.8C277.725 66.68 276.405 66.12 274.805 66.12C274.565 66.12 274.445 65.88 274.445 65.4C274.445 64.92 274.565 64.68 274.805 64.68C276.405 64.68 277.645 64.72 278.525 64.8L283.085 64.92L290.885 64.8C292.085 64.72 293.685 64.68 295.685 64.68C295.925 64.68 296.045 64.92 296.045 65.4C296.045 65.88 295.925 66.12 295.685 66.12C290.885 66.12 288.485 67.08 288.485 69C288.485 69.56 288.645 70.16 288.965 70.8L303.605 101.76L314.885 74.28C315.445 72.76 315.725 71.6 315.725 70.8C315.725 69.2 314.965 68.04 313.445 67.32C311.925 66.52 309.525 66.12 306.245 66.12C306.085 66.12 306.005 65.88 306.005 65.4C306.005 64.92 306.085 64.68 306.245 64.68C308.405 64.68 310.045 64.72 311.165 64.8L318.365 64.92L322.685 64.8C323.485 64.72 324.765 64.68 326.525 64.68ZM354.556 112.56C349.916 112.56 345.796 111.44 342.196 109.2C338.676 106.88 335.956 103.8 334.036 99.96C332.116 96.04 331.156 91.8 331.156 87.24C331.156 82.04 332.396 77.64 334.876 74.04C337.436 70.36 340.676 67.64 344.596 65.88C348.596 64.04 352.636 63.12 356.716 63.12C361.436 63.12 365.556 64.28 369.076 66.6C372.596 68.92 375.276 72 377.116 75.84C379.036 79.6 379.996 83.6 379.996 87.84C379.996 92.8 378.836 97.16 376.516 100.92C374.196 104.6 371.076 107.48 367.156 109.56C363.316 111.56 359.116 112.56 354.556 112.56ZM358.036 110.28C362.436 110.28 365.836 108.72 368.236 105.6C370.636 102.48 371.836 97.68 371.836 91.2C371.836 86.24 370.996 81.8 369.316 77.88C367.716 73.96 365.476 70.92 362.596 68.76C359.716 66.52 356.436 65.4 352.756 65.4C348.436 65.4 345.076 66.96 342.676 70.08C340.356 73.2 339.196 77.68 339.196 83.52C339.196 88.4 339.996 92.88 341.596 96.96C343.196 101.04 345.436 104.28 348.316 106.68C351.196 109.08 354.436 110.28 358.036 110.28Z" fill="#2C2C2C"/>
<path d="M371.88 254.56C372.2 254.56 372.36 254.8 372.36 255.28C372.36 255.76 372.2 256 371.88 256C370.36 256 368 255.92 364.8 255.76C361.6 255.6 359.28 255.52 357.84 255.52C356.08 255.52 353.84 255.6 351.12 255.76C348.56 255.92 346.6 256 345.24 256C344.92 256 344.76 255.76 344.76 255.28C344.76 254.8 344.92 254.56 345.24 254.56C348.2 254.56 350.36 254.28 351.72 253.72C353.08 253.16 353.76 252.2 353.76 250.84C353.76 249.72 353.24 248 352.2 245.68L341.52 223H312.96L305.4 240.76C304.28 243.48 303.72 245.68 303.72 247.36C303.72 249.84 304.68 251.68 306.6 252.88C308.6 254 311.56 254.56 315.48 254.56C315.88 254.56 316.08 254.8 316.08 255.28C316.08 255.76 315.88 256 315.48 256C314.04 256 311.96 255.92 309.24 255.76C306.2 255.6 303.56 255.52 301.32 255.52C299.24 255.52 296.84 255.6 294.12 255.76C291.72 255.92 289.72 256 288.12 256C287.72 256 287.52 255.76 287.52 255.28C287.52 254.8 287.72 254.56 288.12 254.56C290.36 254.56 292.24 254.16 293.76 253.36C295.36 252.48 296.84 251 298.2 248.92C299.64 246.76 301.2 243.68 302.88 239.68L328.2 179.92C328.36 179.68 328.64 179.56 329.04 179.56C329.44 179.56 329.68 179.68 329.76 179.92L358.08 239.56C360.8 245.48 363.12 249.48 365.04 251.56C366.96 253.56 369.24 254.56 371.88 254.56ZM313.92 220.6H340.44L326.4 190.96L313.92 220.6ZM461.298 254.56C461.618 254.56 461.778 254.8 461.778 255.28C461.778 255.76 461.618 256 461.298 256C459.458 256 457.978 255.96 456.858 255.88L450.378 255.76L443.898 255.88C442.778 255.96 441.298 256 439.458 256C439.218 256 439.098 255.76 439.098 255.28C439.098 254.8 439.218 254.56 439.458 254.56C441.618 254.56 443.218 254.36 444.258 253.96C445.298 253.48 446.018 252.68 446.418 251.56C446.818 250.36 447.018 248.6 447.018 246.28V227.2C447.018 222.48 446.178 219 444.498 216.76C442.818 214.44 440.218 213.28 436.698 213.28C434.298 213.28 431.858 213.96 429.378 215.32C426.978 216.6 424.738 218.44 422.658 220.84C422.738 221.24 422.778 221.88 422.778 222.76V246.28C422.778 248.68 422.978 250.44 423.378 251.56C423.778 252.68 424.498 253.48 425.538 253.96C426.578 254.36 428.178 254.56 430.338 254.56C430.578 254.56 430.698 254.8 430.698 255.28C430.698 255.76 430.578 256 430.338 256C428.498 256 427.018 255.96 425.898 255.88L419.418 255.76L412.818 255.88C411.778 255.96 410.338 256 408.498 256C408.258 256 408.138 255.76 408.138 255.28C408.138 254.8 408.258 254.56 408.498 254.56C410.658 254.56 412.258 254.36 413.298 253.96C414.338 253.48 415.018 252.68 415.338 251.56C415.738 250.44 415.938 248.68 415.938 246.28V227.2C415.938 222.48 415.098 219 413.418 216.76C411.738 214.44 409.178 213.28 405.738 213.28C403.338 213.28 400.938 213.92 398.538 215.2C396.138 216.48 393.938 218.28 391.938 220.6V246.28C391.938 248.68 392.098 250.44 392.418 251.56C392.818 252.68 393.538 253.48 394.578 253.96C395.618 254.36 397.218 254.56 399.378 254.56C399.618 254.56 399.738 254.8 399.738 255.28C399.738 255.76 399.618 256 399.378 256C397.538 256 396.098 255.96 395.058 255.88L388.578 255.76L381.978 255.88C380.938 255.96 379.498 256 377.658 256C377.418 256 377.298 255.76 377.298 255.28C377.298 254.8 377.418 254.56 377.658 254.56C379.818 254.56 381.418 254.36 382.458 253.96C383.498 253.48 384.178 252.68 384.498 251.56C384.898 250.44 385.098 248.68 385.098 246.28V222.52C385.098 219.8 384.778 217.84 384.138 216.64C383.498 215.44 382.418 214.84 380.898 214.84C379.618 214.84 377.458 215.44 374.418 216.64H374.178C373.858 216.64 373.618 216.48 373.458 216.16C373.378 215.76 373.498 215.48 373.818 215.32L387.738 208.72L388.458 208.6C389.178 208.6 389.938 209.52 390.738 211.36C391.538 213.2 391.938 215.56 391.938 218.44V218.56C394.818 215.04 397.698 212.48 400.578 210.88C403.458 209.28 406.458 208.48 409.578 208.48C413.178 208.48 416.098 209.36 418.338 211.12C420.578 212.88 421.978 215.52 422.538 219.04C425.498 215.44 428.458 212.8 431.418 211.12C434.378 209.36 437.458 208.48 440.658 208.48C444.898 208.48 448.138 209.72 450.378 212.2C452.698 214.6 453.858 218.2 453.858 223V246.28C453.858 248.68 454.018 250.44 454.338 251.56C454.738 252.68 455.458 253.48 456.498 253.96C457.538 254.36 459.138 254.56 461.298 254.56ZM513.581 249.52C513.901 249.52 514.101 249.72 514.181 250.12C514.261 250.44 514.141 250.68 513.821 250.84L501.461 256.72C501.141 256.88 500.821 256.96 500.501 256.96C499.461 256.96 498.541 256.28 497.741 254.92C496.941 253.48 496.421 251.56 496.181 249.16L489.941 253.24C487.941 254.52 486.181 255.44 484.661 256C483.141 256.56 481.541 256.84 479.861 256.84C476.901 256.84 474.581 256.08 472.901 254.56C471.301 252.96 470.501 250.96 470.501 248.56C470.501 246.16 471.461 244.08 473.381 242.32C475.301 240.56 478.461 238.88 482.861 237.28L496.061 232.36V224.2C496.061 215.24 493.541 210.76 488.501 210.76C485.781 210.76 483.701 211.68 482.261 213.52C480.901 215.28 479.981 217.32 479.501 219.64C479.261 221.08 478.821 222.28 478.181 223.24C477.541 224.12 476.461 224.56 474.941 224.56C473.661 224.56 472.661 224.2 471.941 223.48C471.301 222.76 470.981 221.92 470.981 220.96C470.981 219.04 472.221 217.12 474.701 215.2C477.181 213.28 480.141 211.68 483.581 210.4C487.021 209.12 490.101 208.48 492.821 208.48C496.101 208.48 498.581 209.52 500.261 211.6C501.941 213.68 502.781 216.68 502.781 220.6V243.04C502.781 245.84 503.141 247.88 503.861 249.16C504.581 250.44 505.781 251.08 507.461 251.08C508.981 251.08 510.941 250.56 513.341 249.52H513.581ZM496.061 247.48V246.88V234.04L484.901 238.36C482.661 239.24 481.021 240.28 479.981 241.48C479.021 242.6 478.541 243.96 478.541 245.56C478.541 247.48 479.141 249.12 480.341 250.48C481.621 251.76 483.261 252.4 485.261 252.4C486.861 252.4 488.781 251.76 491.021 250.48L496.061 247.48ZM547.055 208.6C548.815 208.6 550.495 209.08 552.095 210.04C553.695 211 554.495 212.16 554.495 213.52C554.495 214.56 554.135 215.44 553.415 216.16C552.775 216.88 551.815 217.24 550.535 217.24C549.815 217.24 549.175 217.12 548.615 216.88C548.135 216.56 547.535 216.12 546.815 215.56C546.095 214.92 545.415 214.44 544.775 214.12C544.135 213.8 543.375 213.64 542.495 213.64C541.455 213.64 540.335 214.08 539.135 214.96C538.015 215.84 536.215 217.72 533.735 220.6V246.28C533.735 248.68 534.015 250.44 534.575 251.56C535.215 252.68 536.335 253.48 537.935 253.96C539.535 254.36 542.015 254.56 545.375 254.56C545.695 254.56 545.855 254.8 545.855 255.28C545.855 255.76 545.695 256 545.375 256C542.815 256 540.775 255.96 539.255 255.88L530.375 255.76L523.775 255.88C522.735 255.96 521.295 256 519.455 256C519.215 256 519.095 255.76 519.095 255.28C519.095 254.8 519.215 254.56 519.455 254.56C521.615 254.56 523.215 254.36 524.255 253.96C525.295 253.48 525.975 252.68 526.295 251.56C526.695 250.44 526.895 248.68 526.895 246.28V222.52C526.895 219.8 526.575 217.84 525.935 216.64C525.295 215.44 524.215 214.84 522.695 214.84C521.415 214.84 519.255 215.44 516.215 216.64H515.975C515.655 216.64 515.415 216.48 515.255 216.16C515.175 215.76 515.295 215.48 515.615 215.32L529.535 208.72L530.255 208.6C530.975 208.6 531.735 209.52 532.535 211.36C533.335 213.2 533.735 215.56 533.735 218.44V218.56C537.015 214.72 539.615 212.12 541.535 210.76C543.455 209.32 545.295 208.6 547.055 208.6ZM584.079 257.56C579.439 257.56 575.319 256.44 571.719 254.2C568.199 251.88 565.479 248.8 563.559 244.96C561.639 241.04 560.679 236.8 560.679 232.24C560.679 227.04 561.919 222.64 564.399 219.04C566.959 215.36 570.199 212.64 574.119 210.88C578.119 209.04 582.159 208.12 586.239 208.12C590.959 208.12 595.079 209.28 598.599 211.6C602.119 213.92 604.799 217 606.639 220.84C608.559 224.6 609.519 228.6 609.519 232.84C609.519 237.8 608.359 242.16 606.039 245.92C603.719 249.6 600.599 252.48 596.679 254.56C592.839 256.56 588.639 257.56 584.079 257.56ZM587.559 255.28C591.959 255.28 595.359 253.72 597.759 250.6C600.159 247.48 601.359 242.68 601.359 236.2C601.359 231.24 600.519 226.8 598.839 222.88C597.239 218.96 594.999 215.92 592.119 213.76C589.239 211.52 585.959 210.4 582.279 210.4C577.959 210.4 574.599 211.96 572.199 215.08C569.879 218.2 568.719 222.68 568.719 228.52C568.719 233.4 569.519 237.88 571.119 241.96C572.719 246.04 574.959 249.28 577.839 251.68C580.719 254.08 583.959 255.28 587.559 255.28Z" fill="#2C2C2C"/>
<rect y="216" width="256" height="2" fill="#2C2C2C"/>
<rect x="406" y="72" width="208" height="2" fill="#2C2C2C"/>
</svg>
