<svg width="25" height="25" viewBox="0 0 25 25" fill="none" xmlns="http://www.w3.org/2000/svg">
<mask id="mask0_509_13" style="mask-type:alpha" maskUnits="userSpaceOnUse" x="0" y="0" width="25" height="25">
<rect x="0.725967" y="0.0716171" width="24" height="24" fill="#D9D9D9"/>
</mask>
<g mask="url(#mask0_509_13)">
<path d="M6.72597 23.0716C6.17597 23.0716 5.70513 22.8758 5.31347 22.4841C4.9218 22.0925 4.72597 21.6216 4.72597 21.0716V10.0716C4.72597 9.52162 4.9218 9.05078 5.31347 8.65912C5.70513 8.26745 6.17597 8.07162 6.72597 8.07162H9.72597V10.0716H6.72597V21.0716H18.726V10.0716H15.726V8.07162H18.726C19.276 8.07162 19.7468 8.26745 20.1385 8.65912C20.5301 9.05078 20.726 9.52162 20.726 10.0716V21.0716C20.726 21.6216 20.5301 22.0925 20.1385 22.4841C19.7468 22.8758 19.276 23.0716 18.726 23.0716H6.72597ZM11.726 16.0716V4.89662L10.126 6.49662L8.72597 5.07162L12.726 1.07162L16.726 5.07162L15.326 6.49662L13.726 4.89662V16.0716H11.726Z" fill="white"/>
</g>
</svg>
