<svg width="25" height="25" viewBox="0 0 25 25" fill="none" xmlns="http://www.w3.org/2000/svg">
<mask id="mask0_94_89" style="mask-type:alpha" maskUnits="userSpaceOnUse" x="0" y="0" width="25" height="25">
<rect x="0.714355" y="0.805832" width="24" height="24" fill="#D9D9D9"/>
</mask>
<g mask="url(#mask0_94_89)">
<path d="M12.6144 22.8058L17.1644 10.8058H19.2644L23.8144 22.8058H21.7144L20.6394 19.7558H15.7894L14.7144 22.8058H12.6144ZM4.71436 19.8058L3.31436 18.4058L8.36436 13.3558C7.78102 12.7725 7.25186 12.1058 6.77686 11.3558C6.30186 10.6058 5.86436 9.75583 5.46436 8.80583H7.56436C7.89769 9.45583 8.23102 10.0225 8.56436 10.5058C8.89769 10.9892 9.29769 11.4725 9.76436 11.9558C10.3144 11.4058 10.8852 10.635 11.4769 9.64333C12.0685 8.65167 12.5144 7.70583 12.8144 6.80583H1.71436V4.80583H8.71436V2.80583H10.7144V4.80583H17.7144V6.80583H14.8144C14.4644 8.00583 13.9394 9.23917 13.2394 10.5058C12.5394 11.7725 11.8477 12.7392 11.1644 13.4058L13.5644 15.8558L12.8144 17.9058L9.76436 14.7808L4.71436 19.8058ZM16.4144 18.0058H20.0144L18.2144 12.9058L16.4144 18.0058Z" fill="#2C2C2C"/>
</g>
</svg>
