<svg width="25" height="25" viewBox="0 0 25 25" fill="none" xmlns="http://www.w3.org/2000/svg">
<mask id="mask0_414_9" style="mask-type:alpha" maskUnits="userSpaceOnUse" x="0" y="0" width="25" height="25">
<rect x="0.919861" y="0.372822" width="24" height="24" fill="#D9D9D9"/>
</mask>
<g mask="url(#mask0_414_9)">
<path d="M12.6199 18.3728C11.0199 18.2895 9.66986 17.6728 8.56986 16.5228C7.46986 15.3728 6.91986 13.9895 6.91986 12.3728C6.91986 10.7062 7.50319 9.28949 8.66986 8.12282C9.83653 6.95616 11.2532 6.37282 12.9199 6.37282C14.5365 6.37282 15.9199 6.92282 17.0699 8.02282C18.2199 9.12282 18.8365 10.4728 18.9199 12.0728L16.8199 11.4478C16.6032 10.5478 16.1365 9.81032 15.4199 9.23532C14.7032 8.66032 13.8699 8.37282 12.9199 8.37282C11.8199 8.37282 10.8782 8.76449 10.0949 9.54782C9.31153 10.3312 8.91986 11.2728 8.91986 12.3728C8.91986 13.3228 9.20736 14.1562 9.78236 14.8728C10.3574 15.5895 11.0949 16.0562 11.9949 16.2728L12.6199 18.3728ZM21.4449 22.8728L17.1699 18.5978L15.9199 22.3728L12.9199 12.3728L22.9199 15.3728L19.1449 16.6228L23.4199 20.8978L21.4449 22.8728Z" fill="#FFFFFF"/>
</g>
</svg>
