<svg width="16" height="16" viewBox="0 0 16 16" fill="none" xmlns="http://www.w3.org/2000/svg">
<g id="linkedin-svgrepo-com 1" clip-path="url(#clip0_22_110)">
<g id="SVGRepo_iconCarrier">
<path id="Vector" d="M14.7197 0.00143501H1.36997C1.1979 -0.0066248 1.02593 0.0193248 0.8639 0.0778135C0.701874 0.136302 0.552978 0.22617 0.42572 0.342267C0.298473 0.458374 0.195366 0.598441 0.122317 0.754437C0.049269 0.910444 0.00769982 1.07932 0 1.25141V14.6311C0.0100798 14.9912 0.157656 15.3339 0.41242 15.5886C0.667184 15.8434 1.00982 15.991 1.36997 16.0011H14.7197C15.0698 15.9855 15.3998 15.8333 15.6391 15.5772C15.8784 15.3211 16.0078 14.9815 15.9996 14.6311V1.25141C16.0025 1.08391 15.9711 0.917604 15.9074 0.762667C15.8437 0.607741 15.749 0.467454 15.6291 0.350407C15.5093 0.23337 15.3668 0.142052 15.2105 0.0820434C15.0541 0.0220348 14.8871 -0.00539483 14.7197 0.00143501ZM4.99989 13.3412H2.66994V6.21132H4.99989V13.3412ZM3.88991 5.13132C3.72732 5.13699 3.56532 5.10897 3.41408 5.04903C3.26283 4.98909 3.12562 4.89852 3.01106 4.78301C2.89649 4.66751 2.80705 4.52956 2.74835 4.37783C2.68964 4.22611 2.66295 4.06388 2.66994 3.90135C2.66275 3.73705 2.68998 3.57307 2.74989 3.41993C2.8098 3.26677 2.90105 3.12783 3.0178 3.01203C3.13456 2.89621 3.27422 2.80608 3.42785 2.74742C3.58149 2.68875 3.74568 2.66285 3.90991 2.67137C4.0725 2.66571 4.2345 2.69372 4.38574 2.75366C4.53699 2.8136 4.6742 2.90417 4.78876 3.01968C4.90333 3.13518 4.99277 3.27313 5.05147 3.42486C5.11018 3.57658 5.13687 3.73881 5.12988 3.90135C5.13707 4.06564 5.10984 4.22962 5.04993 4.38276C4.99003 4.53592 4.89877 4.67486 4.78202 4.79067C4.66526 4.90648 4.5256 4.99661 4.37197 5.05527C4.21833 5.11394 4.05414 5.13984 3.88991 5.13132ZM13.3397 13.3412H10.9997V9.44125C10.9997 8.51127 10.6698 7.87128 9.83977 7.87128C9.58198 7.87348 9.33109 7.95538 9.12169 8.10578C8.91219 8.25617 8.7544 8.46767 8.6698 8.71126C8.6048 8.89386 8.5776 9.08775 8.5898 9.28125V13.3412H6.28986V6.21132H8.5898V7.2113C8.7943 6.83561 9.09859 6.52381 9.46918 6.31022C9.83977 6.09672 10.2622 5.98981 10.6898 6.0013C12.1997 6.0013 13.3397 7.0013 13.3397 9.13125V13.3412Z" fill="#2C2C2C"/>
</g>
</g>
<defs>
<clipPath id="clip0_22_110">
<rect width="16" height="16" fill="white"/>
</clipPath>
</defs>
</svg>
