<svg width="687" height="114" viewBox="0 0 687 114" fill="none" xmlns="http://www.w3.org/2000/svg">
<path d="M0.5 111V3H16.775L54.125 79.5L91.475 3H107.75V111H90.875V41.775L57.725 111H50.525L17.45 41.775V111H0.5ZM140.97 113.25C135.12 113.25 130.17 112.15 126.12 109.95C122.07 107.7 118.995 104.725 116.895 101.025C114.845 97.325 113.82 93.25 113.82 88.8C113.82 84.9 114.47 81.4 115.77 78.3C117.07 75.15 119.07 72.45 121.77 70.2C124.47 67.9 127.97 66.025 132.27 64.575C135.52 63.525 139.32 62.575 143.67 61.725C148.07 60.875 152.82 60.1 157.92 59.4C163.07 58.65 168.445 57.85 174.045 57L167.595 60.675C167.645 55.075 166.395 50.95 163.845 48.3C161.295 45.65 156.995 44.325 150.945 44.325C147.295 44.325 143.77 45.175 140.37 46.875C136.97 48.575 134.595 51.5 133.245 55.65L116.745 50.475C118.745 43.625 122.545 38.125 128.145 33.975C133.795 29.825 141.395 27.75 150.945 27.75C158.145 27.75 164.47 28.925 169.92 31.275C175.42 33.625 179.495 37.475 182.145 42.825C183.595 45.675 184.47 48.6 184.77 51.6C185.07 54.55 185.22 57.775 185.22 61.275V111H169.395V93.45L172.02 96.3C168.37 102.15 164.095 106.45 159.195 109.2C154.345 111.9 148.27 113.25 140.97 113.25ZM144.57 98.85C148.67 98.85 152.17 98.125 155.07 96.675C157.97 95.225 160.27 93.45 161.97 91.35C163.72 89.25 164.895 87.275 165.495 85.425C166.445 83.125 166.97 80.5 167.07 77.55C167.22 74.55 167.295 72.125 167.295 70.275L172.845 71.925C167.395 72.775 162.72 73.525 158.82 74.175C154.92 74.825 151.57 75.45 148.77 76.05C145.97 76.6 143.495 77.225 141.345 77.925C139.245 78.675 137.47 79.55 136.02 80.55C134.57 81.55 133.445 82.7 132.645 84C131.895 85.3 131.52 86.825 131.52 88.575C131.52 90.575 132.02 92.35 133.02 93.9C134.02 95.4 135.47 96.6 137.37 97.5C139.32 98.4 141.72 98.85 144.57 98.85ZM194.246 111V30H210.221V49.725L208.271 47.175C209.271 44.475 210.596 42.025 212.246 39.825C213.946 37.575 215.971 35.725 218.321 34.275C220.321 32.925 222.521 31.875 224.921 31.125C227.371 30.325 229.871 29.85 232.421 29.7C234.971 29.5 237.446 29.6 239.846 30V46.875C237.446 46.175 234.671 45.95 231.521 46.2C228.421 46.45 225.621 47.325 223.121 48.825C220.621 50.175 218.571 51.9 216.971 54C215.421 56.1 214.271 58.5 213.521 61.2C212.771 63.85 212.396 66.725 212.396 69.825V111H194.246ZM245.158 17.7V1.125H263.233V17.7H245.158ZM245.158 111V30H263.233V111H245.158ZM297.849 113.25C291.999 113.25 287.049 112.15 282.999 109.95C278.949 107.7 275.874 104.725 273.774 101.025C271.724 97.325 270.699 93.25 270.699 88.8C270.699 84.9 271.349 81.4 272.649 78.3C273.949 75.15 275.949 72.45 278.649 70.2C281.349 67.9 284.849 66.025 289.149 64.575C292.399 63.525 296.199 62.575 300.549 61.725C304.949 60.875 309.699 60.1 314.799 59.4C319.949 58.65 325.324 57.85 330.924 57L324.474 60.675C324.524 55.075 323.274 50.95 320.724 48.3C318.174 45.65 313.874 44.325 307.824 44.325C304.174 44.325 300.649 45.175 297.249 46.875C293.849 48.575 291.474 51.5 290.124 55.65L273.624 50.475C275.624 43.625 279.424 38.125 285.024 33.975C290.674 29.825 298.274 27.75 307.824 27.75C315.024 27.75 321.349 28.925 326.799 31.275C332.299 33.625 336.374 37.475 339.024 42.825C340.474 45.675 341.349 48.6 341.649 51.6C341.949 54.55 342.099 57.775 342.099 61.275V111H326.274V93.45L328.899 96.3C325.249 102.15 320.974 106.45 316.074 109.2C311.224 111.9 305.149 113.25 297.849 113.25ZM301.449 98.85C305.549 98.85 309.049 98.125 311.949 96.675C314.849 95.225 317.149 93.45 318.849 91.35C320.599 89.25 321.774 87.275 322.374 85.425C323.324 83.125 323.849 80.5 323.949 77.55C324.099 74.55 324.174 72.125 324.174 70.275L329.724 71.925C324.274 72.775 319.599 73.525 315.699 74.175C311.799 74.825 308.449 75.45 305.649 76.05C302.849 76.6 300.374 77.225 298.224 77.925C296.124 78.675 294.349 79.55 292.899 80.55C291.449 81.55 290.324 82.7 289.524 84C288.774 85.3 288.399 86.825 288.399 88.575C288.399 90.575 288.899 92.35 289.899 93.9C290.899 95.4 292.349 96.6 294.249 97.5C296.199 98.4 298.599 98.85 301.449 98.85ZM386.9 113.25C380.9 113.25 375.225 112.375 369.875 110.625C364.575 108.825 360.15 106 356.6 102.15C353.75 99 351.65 95.575 350.3 91.875C349 88.125 348.275 84.125 348.125 79.875C348.125 75.725 348.725 71.7 349.925 67.8C351.175 63.9 353.075 60.45 355.625 57.45C356.625 56.25 357.7 55.2 358.85 54.3C360.05 53.35 361.25 52.5 362.45 51.75C359.5 48.45 357.25 45.25 355.7 42.15C354.2 39.05 353.45 35.4 353.45 31.2C353.45 24.9 355.15 19.25 358.55 14.25C361.95 9.24999 366.575 5.64999 372.425 3.45C374.975 2.5 377.55 1.85 380.15 1.5C382.8 1.14999 385.375 0.97499 387.875 0.97499C392.575 0.97499 397.1 1.69999 401.45 3.14999C405.8 4.54999 409.5 6.84999 412.55 10.05C414.5 11.9 416.125 14 417.425 16.35C418.725 18.65 419.7 21.025 420.35 23.475L402.5 27.3C401.8 25.05 400.575 23.125 398.825 21.525C397.325 20.075 395.55 19.125 393.5 18.675C391.45 18.175 389.425 17.925 387.425 17.925C384.225 17.925 381.4 18.5 378.95 19.65C376.5 20.8 374.675 22.35 373.475 24.3C372.325 26.25 371.75 28.625 371.75 31.425C371.75 33.925 372.2 35.925 373.1 37.425C374.05 38.925 375.2 40.45 376.55 42C377.45 43 378.55 44.1 379.85 45.3C381.15 46.5 382.5 47.75 383.9 49.05L411.05 74.175C411.1 73.175 411.125 72.1 411.125 70.95C411.125 69.75 411.125 68.625 411.125 67.575V54.375H427.025V73.95C427.025 76.65 426.95 79.275 426.8 81.825C426.65 84.325 426.35 86.4 425.9 88.05L439.325 100.35L427.7 112.725L417.275 102.825C414.725 105.225 411.925 107.175 408.875 108.675C405.825 110.175 402.75 111.25 399.65 111.9C397.4 112.45 395.25 112.8 393.2 112.95C391.15 113.15 389.05 113.25 386.9 113.25ZM387.65 96.075C389.2 96.075 390.65 96 392 95.85C393.4 95.7 394.75 95.4 396.05 94.95C397.9 94.4 399.475 93.75 400.775 93C402.125 92.25 403.3 91.475 404.3 90.675L375.725 64.425C374.375 64.925 373.15 65.575 372.05 66.375C371 67.125 370.1 67.975 369.35 68.925C368.4 70.175 367.65 71.65 367.1 73.35C366.6 75 366.35 76.825 366.35 78.825C366.4 81.125 366.775 83.175 367.475 84.975C368.175 86.725 369.1 88.3 370.25 89.7C372.05 92 374.625 93.65 377.975 94.65C381.325 95.6 384.55 96.075 387.65 96.075ZM440.967 111V3H459.042V53.1L502.167 3H524.367L477.942 55.95L527.517 111H504.567L459.042 60.6V111H440.967ZM550.236 113.25C544.386 113.25 539.436 112.15 535.386 109.95C531.336 107.7 528.261 104.725 526.161 101.025C524.111 97.325 523.086 93.25 523.086 88.8C523.086 84.9 523.736 81.4 525.036 78.3C526.336 75.15 528.336 72.45 531.036 70.2C533.736 67.9 537.236 66.025 541.536 64.575C544.786 63.525 548.586 62.575 552.936 61.725C557.336 60.875 562.086 60.1 567.186 59.4C572.336 58.65 577.711 57.85 583.311 57L576.861 60.675C576.911 55.075 575.661 50.95 573.111 48.3C570.561 45.65 566.261 44.325 560.211 44.325C556.561 44.325 553.036 45.175 549.636 46.875C546.236 48.575 543.861 51.5 542.511 55.65L526.011 50.475C528.011 43.625 531.811 38.125 537.411 33.975C543.061 29.825 550.661 27.75 560.211 27.75C567.411 27.75 573.736 28.925 579.186 31.275C584.686 33.625 588.761 37.475 591.411 42.825C592.861 45.675 593.736 48.6 594.036 51.6C594.336 54.55 594.486 57.775 594.486 61.275V111H578.661V93.45L581.286 96.3C577.636 102.15 573.361 106.45 568.461 109.2C563.611 111.9 557.536 113.25 550.236 113.25ZM553.836 98.85C557.936 98.85 561.436 98.125 564.336 96.675C567.236 95.225 569.536 93.45 571.236 91.35C572.986 89.25 574.161 87.275 574.761 85.425C575.711 83.125 576.236 80.5 576.336 77.55C576.486 74.55 576.561 72.125 576.561 70.275L582.111 71.925C576.661 72.775 571.986 73.525 568.086 74.175C564.186 74.825 560.836 75.45 558.036 76.05C555.236 76.6 552.761 77.225 550.611 77.925C548.511 78.675 546.736 79.55 545.286 80.55C543.836 81.55 542.711 82.7 541.911 84C541.161 85.3 540.786 86.825 540.786 88.575C540.786 90.575 541.286 92.35 542.286 93.9C543.286 95.4 544.736 96.6 546.636 97.5C548.586 98.4 550.986 98.85 553.836 98.85ZM605.012 111V0.749998H623.087V111H605.012ZM636.553 17.7V1.125H654.628V17.7H636.553ZM636.553 111V30H654.628V111H636.553ZM668.094 111V0.749998H686.169V111H668.094Z" fill="white"/>
</svg>
