<svg width="614" height="289" viewBox="0 0 614 289" fill="none" xmlns="http://www.w3.org/2000/svg">
<path d="M97.44 109.56C97.68 109.56 97.8 109.8 97.8 110.28C97.8 110.76 97.68 111 97.44 111C94.96 111 93 110.96 91.56 110.88L83.28 110.76L75.6 110.88C74.32 110.96 72.52 111 70.2 111C70.04 111 69.96 110.76 69.96 110.28C69.96 109.8 70.04 109.56 70.2 109.56C72.92 109.56 74.92 109.36 76.2 108.96C77.56 108.48 78.44 107.68 78.84 106.56C79.32 105.44 79.48 103.68 79.32 101.28L77.16 46.68L49.8 110.16C49.64 110.48 49.32 110.64 48.84 110.64C48.44 110.64 48.08 110.48 47.76 110.16L18.24 47.4L17.16 97.92C17.08 102.16 17.8 105.16 19.32 106.92C20.84 108.68 23.52 109.56 27.36 109.56C27.52 109.56 27.6 109.8 27.6 110.28C27.6 110.76 27.52 111 27.36 111C25.12 111 23.4 110.96 22.2 110.88L15.72 110.76L9.48 110.88C8.36 110.96 6.76 111 4.68 111C4.52 111 4.44 110.76 4.44 110.28C4.44 109.8 4.52 109.56 4.68 109.56C8.04 109.56 10.44 108.68 11.88 106.92C13.4 105.08 14.2 102.08 14.28 97.92L15.36 42.24C12.96 39.04 9.68 37.44 5.52 37.44C5.36 37.44 5.28 37.2 5.28 36.72C5.28 36.24 5.36 36 5.52 36L9.96 36.12C10.76 36.2 11.88 36.24 13.32 36.24C14.76 36.24 15.96 36.2 16.92 36.12C17.96 36.04 18.76 36 19.32 36C20.36 36 21.2 36.4 21.84 37.2C22.56 37.92 23.56 39.6 24.84 42.24L51.6 98.64L77.76 39C78.64 37 79.84 36 81.36 36C81.76 36 82.32 36.04 83.04 36.12C83.84 36.2 84.88 36.24 86.16 36.24L91.8 36.12C92.68 36.04 94 36 95.76 36C96 36 96.12 36.24 96.12 36.72C96.12 37.2 96 37.44 95.76 37.44C91.76 37.44 88.88 38.04 87.12 39.24C85.44 40.36 84.64 42.52 84.72 45.72L87.12 101.28C87.2 103.76 87.48 105.56 87.96 106.68C88.52 107.8 89.48 108.56 90.84 108.96C92.2 109.36 94.4 109.56 97.44 109.56ZM150.113 104.52C150.433 104.52 150.633 104.72 150.713 105.12C150.793 105.44 150.673 105.68 150.353 105.84L137.993 111.72C137.673 111.88 137.353 111.96 137.033 111.96C135.993 111.96 135.073 111.28 134.273 109.92C133.473 108.48 132.953 106.56 132.713 104.16L126.473 108.24C124.473 109.52 122.713 110.44 121.193 111C119.673 111.56 118.073 111.84 116.393 111.84C113.433 111.84 111.113 111.08 109.433 109.56C107.833 107.96 107.033 105.96 107.033 103.56C107.033 101.16 107.993 99.08 109.913 97.32C111.833 95.56 114.993 93.88 119.393 92.28L132.593 87.36V79.2C132.593 70.24 130.073 65.76 125.033 65.76C122.313 65.76 120.233 66.68 118.793 68.52C117.433 70.28 116.513 72.32 116.033 74.64C115.793 76.08 115.353 77.28 114.713 78.24C114.073 79.12 112.993 79.56 111.473 79.56C110.193 79.56 109.193 79.2 108.473 78.48C107.833 77.76 107.513 76.92 107.513 75.96C107.513 74.04 108.753 72.12 111.233 70.2C113.713 68.28 116.673 66.68 120.113 65.4C123.553 64.12 126.633 63.48 129.353 63.48C132.633 63.48 135.113 64.52 136.793 66.6C138.473 68.68 139.313 71.68 139.313 75.6V98.04C139.313 100.84 139.673 102.88 140.393 104.16C141.113 105.44 142.313 106.08 143.993 106.08C145.513 106.08 147.473 105.56 149.873 104.52H150.113ZM132.593 102.48V101.88V89.04L121.433 93.36C119.193 94.24 117.553 95.28 116.513 96.48C115.553 97.6 115.073 98.96 115.073 100.56C115.073 102.48 115.673 104.12 116.873 105.48C118.153 106.76 119.793 107.4 121.793 107.4C123.393 107.4 125.313 106.76 127.553 105.48L132.593 102.48ZM183.586 63.6C185.346 63.6 187.026 64.08 188.626 65.04C190.226 66 191.026 67.16 191.026 68.52C191.026 69.56 190.666 70.44 189.946 71.16C189.306 71.88 188.346 72.24 187.066 72.24C186.346 72.24 185.706 72.12 185.146 71.88C184.666 71.56 184.066 71.12 183.346 70.56C182.626 69.92 181.946 69.44 181.306 69.12C180.666 68.8 179.906 68.64 179.026 68.64C177.986 68.64 176.866 69.08 175.666 69.96C174.546 70.84 172.746 72.72 170.266 75.6V101.28C170.266 103.68 170.546 105.44 171.106 106.56C171.746 107.68 172.866 108.48 174.466 108.96C176.066 109.36 178.546 109.56 181.906 109.56C182.226 109.56 182.386 109.8 182.386 110.28C182.386 110.76 182.226 111 181.906 111C179.346 111 177.306 110.96 175.786 110.88L166.906 110.76L160.306 110.88C159.266 110.96 157.826 111 155.986 111C155.746 111 155.626 110.76 155.626 110.28C155.626 109.8 155.746 109.56 155.986 109.56C158.146 109.56 159.746 109.36 160.786 108.96C161.826 108.48 162.506 107.68 162.826 106.56C163.226 105.44 163.426 103.68 163.426 101.28V77.52C163.426 74.8 163.106 72.84 162.466 71.64C161.826 70.44 160.746 69.84 159.226 69.84C157.946 69.84 155.786 70.44 152.746 71.64H152.506C152.186 71.64 151.946 71.48 151.786 71.16C151.706 70.76 151.826 70.48 152.146 70.32L166.066 63.72L166.786 63.6C167.506 63.6 168.266 64.52 169.066 66.36C169.866 68.2 170.266 70.56 170.266 73.44V73.56C173.546 69.72 176.146 67.12 178.066 65.76C179.986 64.32 181.826 63.6 183.586 63.6ZM210.737 49.56C209.057 49.56 207.737 49.12 206.777 48.24C205.897 47.36 205.457 46.12 205.457 44.52C205.457 42.92 205.897 41.68 206.777 40.8C207.737 39.92 209.057 39.48 210.737 39.48C212.337 39.48 213.577 39.92 214.457 40.8C215.337 41.68 215.777 42.92 215.777 44.52C215.777 46.12 215.337 47.36 214.457 48.24C213.577 49.12 212.337 49.56 210.737 49.56ZM200.657 111C200.497 111 200.417 110.76 200.417 110.28C200.417 109.8 200.497 109.56 200.657 109.56C202.817 109.56 204.417 109.36 205.457 108.96C206.577 108.48 207.337 107.68 207.737 106.56C208.137 105.36 208.337 103.6 208.337 101.28V78.84C208.337 75.96 208.017 73.88 207.377 72.6C206.817 71.32 205.817 70.68 204.377 70.68C202.937 70.68 201.137 71.24 198.977 72.36H198.857C198.537 72.36 198.297 72.16 198.137 71.76C197.977 71.36 198.017 71.08 198.257 70.92L213.857 63.72L214.337 63.6C214.497 63.6 214.697 63.72 214.937 63.96C215.177 64.12 215.297 64.32 215.297 64.56C215.297 65.12 215.257 66.72 215.177 69.36C215.097 72 215.057 75.12 215.057 78.72V101.28C215.057 103.68 215.257 105.44 215.657 106.56C216.057 107.68 216.777 108.48 217.817 108.96C218.857 109.36 220.457 109.56 222.617 109.56C222.857 109.56 222.977 109.8 222.977 110.28C222.977 110.76 222.857 111 222.617 111C220.777 111 219.297 110.96 218.177 110.88L211.697 110.76L205.217 110.88C204.097 110.96 202.577 111 200.657 111ZM276.909 104.52C277.229 104.52 277.429 104.72 277.509 105.12C277.589 105.44 277.469 105.68 277.149 105.84L264.789 111.72C264.469 111.88 264.149 111.96 263.829 111.96C262.789 111.96 261.869 111.28 261.069 109.92C260.269 108.48 259.749 106.56 259.509 104.16L253.269 108.24C251.269 109.52 249.509 110.44 247.989 111C246.469 111.56 244.869 111.84 243.189 111.84C240.229 111.84 237.909 111.08 236.229 109.56C234.629 107.96 233.829 105.96 233.829 103.56C233.829 101.16 234.789 99.08 236.709 97.32C238.629 95.56 241.789 93.88 246.189 92.28L259.389 87.36V79.2C259.389 70.24 256.869 65.76 251.829 65.76C249.109 65.76 247.029 66.68 245.589 68.52C244.229 70.28 243.309 72.32 242.829 74.64C242.589 76.08 242.149 77.28 241.509 78.24C240.869 79.12 239.789 79.56 238.269 79.56C236.989 79.56 235.989 79.2 235.269 78.48C234.629 77.76 234.309 76.92 234.309 75.96C234.309 74.04 235.549 72.12 238.029 70.2C240.509 68.28 243.469 66.68 246.909 65.4C250.349 64.12 253.429 63.48 256.149 63.48C259.429 63.48 261.909 64.52 263.589 66.6C265.269 68.68 266.109 71.68 266.109 75.6V98.04C266.109 100.84 266.469 102.88 267.189 104.16C267.909 105.44 269.109 106.08 270.789 106.08C272.309 106.08 274.269 105.56 276.669 104.52H276.909ZM259.389 102.48V101.88V89.04L248.229 93.36C245.989 94.24 244.349 95.28 243.309 96.48C242.349 97.6 241.869 98.96 241.869 100.56C241.869 102.48 242.469 104.12 243.669 105.48C244.949 106.76 246.589 107.4 248.589 107.4C250.189 107.4 252.109 106.76 254.349 105.48L259.389 102.48ZM389.148 109.56C389.468 109.64 389.588 109.92 389.508 110.4C389.508 110.8 389.388 111 389.148 111H376.188C372.588 111 367.108 108.16 359.748 102.48C353.268 109.12 345.188 112.44 335.508 112.44C330.548 112.44 326.388 111.6 323.028 109.92C319.748 108.24 317.268 106.04 315.588 103.32C313.988 100.6 313.188 97.68 313.188 94.56C313.188 90 314.588 86.04 317.388 82.68C320.268 79.24 324.388 75.56 329.748 71.64C328.308 69.48 327.148 67.48 326.268 65.64C323.948 60.52 322.788 56.16 322.788 52.56C322.788 49.12 323.628 45.96 325.308 43.08C326.988 40.12 329.348 37.8 332.388 36.12C335.428 34.36 338.868 33.48 342.708 33.48C346.548 33.48 349.828 34.4 352.548 36.24C355.348 38.08 356.748 41.12 356.748 45.36C356.748 48.48 355.948 51.28 354.348 53.76C352.828 56.24 350.908 58.44 348.588 60.36C346.348 62.2 343.308 64.4 339.468 66.96C338.908 67.28 338.068 67.84 336.948 68.64C342.468 77.52 350.988 86.44 362.508 95.4C365.308 90.52 366.708 85.12 366.708 79.2C366.708 76.32 366.108 74.16 364.908 72.72C363.788 71.28 361.548 70.56 358.188 70.56C357.948 70.56 357.788 70.32 357.708 69.84C357.708 69.36 357.868 69.12 358.188 69.12L383.268 69C383.588 69 383.748 69.24 383.748 69.72C383.748 70.2 383.588 70.44 383.268 70.44C380.548 70.44 378.508 70.72 377.148 71.28C375.788 71.76 374.828 72.44 374.268 73.32C373.708 74.2 373.148 75.6 372.588 77.52C370.268 85.44 367.508 91.84 364.308 96.72C369.028 100.16 373.588 103 377.988 105.24C382.388 107.48 386.108 108.92 389.148 109.56ZM329.748 47.4C329.748 53.64 331.828 60.24 335.988 67.2C340.388 63.92 343.748 60.76 346.068 57.72C348.468 54.6 349.668 51.12 349.668 47.28C349.668 43.76 348.708 41 346.788 39C344.948 37 342.428 36 339.228 36C332.908 36 329.748 39.8 329.748 47.4ZM340.908 108.84C347.628 108.84 353.388 106.32 358.188 101.28L356.028 99.48C351.228 95.72 346.588 91.56 342.108 87C337.708 82.36 333.908 77.76 330.708 73.2C327.588 75.68 325.148 78.32 323.388 81.12C321.708 83.84 320.868 86.92 320.868 90.36C320.868 93.72 321.708 96.84 323.388 99.72C325.148 102.52 327.548 104.76 330.588 106.44C333.708 108.04 337.148 108.84 340.908 108.84Z" fill="#2C2C2C"/>
<path d="M468.92 253.56C469.16 253.56 469.28 253.8 469.28 254.28C469.28 254.76 469.16 255 468.92 255H455.48C454.84 255 453.68 255 452 255C450.4 255.08 448.12 253.08 445.16 249C442.2 244.84 439.36 241.04 436.64 237.6L418.28 214.44L414.32 218.28V245.28C414.32 247.68 414.56 249.48 415.04 250.68C415.52 251.8 416.44 252.56 417.8 252.96C419.24 253.36 421.48 253.56 424.52 253.56C424.76 253.56 424.88 253.8 424.88 254.28C424.88 254.76 424.76 255 424.52 255C422.12 255 420.2 254.96 418.76 254.88L410.36 254.76L402.2 254.88C400.76 254.96 398.76 255 396.2 255C396.04 255 395.96 254.76 395.96 254.28C395.96 253.8 396.04 253.56 396.2 253.56C399.24 253.56 401.44 253.36 402.8 252.96C404.24 252.56 405.2 251.8 405.68 250.68C406.24 249.48 406.52 247.68 406.52 245.28V189.72C406.52 187.32 406.28 185.56 405.8 184.44C405.32 183.32 404.36 182.56 402.92 182.16C401.56 181.68 399.36 181.44 396.32 181.44C396.16 181.44 396.08 181.2 396.08 180.72C396.08 180.24 396.16 180 396.32 180L402.32 180.12C405.68 180.28 408.36 180.36 410.36 180.36C412.68 180.36 415.52 180.28 418.88 180.12L424.52 180C424.76 180 424.88 180.24 424.88 180.72C424.88 181.2 424.76 181.44 424.52 181.44C421.56 181.44 419.36 181.68 417.92 182.16C416.56 182.64 415.6 183.48 415.04 184.68C414.56 185.8 414.32 187.56 414.32 189.96V215.28L440 189.72C442.64 187.08 443.96 185.12 443.96 183.84C443.96 182.24 441.6 181.44 436.88 181.44C436.72 181.44 436.64 181.2 436.64 180.72C436.64 180.24 436.72 180 436.88 180L442.04 180.12C445.24 180.28 448.16 180.36 450.8 180.36C453.44 180.36 456.2 180.28 459.08 180.12L463.52 180C463.76 180 463.88 180.24 463.88 180.72C463.88 181.2 463.76 181.44 463.52 181.44C460.24 181.44 456.76 182.16 453.08 183.6C449.4 185.04 445.96 187.32 442.76 190.44L423.8 209.04L441.08 231.12C446.92 238.72 451.36 244.08 454.4 247.2C457.52 250.32 459.92 252.16 461.6 252.72C463.28 253.28 465.72 253.56 468.92 253.56ZM518.792 248.52C519.112 248.52 519.312 248.72 519.392 249.12C519.472 249.44 519.352 249.68 519.032 249.84L506.672 255.72C506.352 255.88 506.032 255.96 505.712 255.96C504.672 255.96 503.752 255.28 502.952 253.92C502.152 252.48 501.632 250.56 501.392 248.16L495.152 252.24C493.152 253.52 491.392 254.44 489.872 255C488.352 255.56 486.752 255.84 485.072 255.84C482.112 255.84 479.792 255.08 478.112 253.56C476.512 251.96 475.712 249.96 475.712 247.56C475.712 245.16 476.672 243.08 478.592 241.32C480.512 239.56 483.672 237.88 488.072 236.28L501.272 231.36V223.2C501.272 214.24 498.752 209.76 493.712 209.76C490.992 209.76 488.912 210.68 487.472 212.52C486.112 214.28 485.192 216.32 484.712 218.64C484.472 220.08 484.032 221.28 483.392 222.24C482.752 223.12 481.672 223.56 480.152 223.56C478.872 223.56 477.872 223.2 477.152 222.48C476.512 221.76 476.192 220.92 476.192 219.96C476.192 218.04 477.432 216.12 479.912 214.2C482.392 212.28 485.352 210.68 488.792 209.4C492.232 208.12 495.312 207.48 498.032 207.48C501.312 207.48 503.792 208.52 505.472 210.6C507.152 212.68 507.992 215.68 507.992 219.6V242.04C507.992 244.84 508.352 246.88 509.072 248.16C509.792 249.44 510.992 250.08 512.672 250.08C514.192 250.08 516.152 249.56 518.552 248.52H518.792ZM501.272 246.48V245.88V233.04L490.112 237.36C487.872 238.24 486.232 239.28 485.192 240.48C484.232 241.6 483.752 242.96 483.752 244.56C483.752 246.48 484.352 248.12 485.552 249.48C486.832 250.76 488.472 251.4 490.472 251.4C492.072 251.4 493.992 250.76 496.232 249.48L501.272 246.48ZM524.066 255C523.826 255 523.706 254.76 523.706 254.28C523.706 253.8 523.826 253.56 524.066 253.56C526.226 253.56 527.826 253.36 528.866 252.96C529.906 252.48 530.626 251.68 531.026 250.56C531.426 249.36 531.626 247.6 531.626 245.28V183.24C531.626 180.36 531.346 178.28 530.786 177C530.226 175.72 529.226 175.08 527.786 175.08C526.586 175.08 524.746 175.64 522.266 176.76H522.026C521.786 176.76 521.586 176.56 521.426 176.16C521.346 175.76 521.426 175.52 521.666 175.44L537.026 168.12C537.186 168.04 537.386 168 537.626 168C537.786 168 537.986 168.12 538.226 168.36C538.546 168.52 538.706 168.72 538.706 168.96V245.28C538.706 247.6 538.866 249.32 539.186 250.44C539.586 251.56 540.306 252.36 541.346 252.84C542.386 253.32 543.986 253.56 546.146 253.56C546.386 253.56 546.506 253.8 546.506 254.28C546.506 254.76 546.386 255 546.146 255C544.386 255 542.946 254.96 541.826 254.88L535.106 254.76L528.626 254.88C527.506 254.96 525.986 255 524.066 255ZM566.643 193.56C564.963 193.56 563.643 193.12 562.683 192.24C561.803 191.36 561.363 190.12 561.363 188.52C561.363 186.92 561.803 185.68 562.683 184.8C563.643 183.92 564.963 183.48 566.643 183.48C568.243 183.48 569.483 183.92 570.363 184.8C571.243 185.68 571.683 186.92 571.683 188.52C571.683 190.12 571.243 191.36 570.363 192.24C569.483 193.12 568.243 193.56 566.643 193.56ZM556.563 255C556.403 255 556.323 254.76 556.323 254.28C556.323 253.8 556.403 253.56 556.563 253.56C558.723 253.56 560.323 253.36 561.363 252.96C562.483 252.48 563.243 251.68 563.643 250.56C564.043 249.36 564.243 247.6 564.243 245.28V222.84C564.243 219.96 563.923 217.88 563.283 216.6C562.723 215.32 561.723 214.68 560.283 214.68C558.843 214.68 557.043 215.24 554.883 216.36H554.763C554.443 216.36 554.203 216.16 554.043 215.76C553.883 215.36 553.923 215.08 554.163 214.92L569.763 207.72L570.243 207.6C570.403 207.6 570.603 207.72 570.843 207.96C571.083 208.12 571.203 208.32 571.203 208.56C571.203 209.12 571.163 210.72 571.083 213.36C571.003 216 570.963 219.12 570.963 222.72V245.28C570.963 247.68 571.163 249.44 571.563 250.56C571.963 251.68 572.683 252.48 573.723 252.96C574.763 253.36 576.363 253.56 578.523 253.56C578.763 253.56 578.883 253.8 578.883 254.28C578.883 254.76 578.763 255 578.523 255C576.683 255 575.203 254.96 574.083 254.88L567.603 254.76L561.123 254.88C560.003 254.96 558.483 255 556.563 255ZM587.816 255C587.576 255 587.456 254.76 587.456 254.28C587.456 253.8 587.576 253.56 587.816 253.56C589.976 253.56 591.576 253.36 592.616 252.96C593.656 252.48 594.376 251.68 594.776 250.56C595.176 249.36 595.376 247.6 595.376 245.28V183.24C595.376 180.36 595.096 178.28 594.536 177C593.976 175.72 592.976 175.08 591.536 175.08C590.336 175.08 588.496 175.64 586.016 176.76H585.776C585.536 176.76 585.336 176.56 585.176 176.16C585.096 175.76 585.176 175.52 585.416 175.44L600.776 168.12C600.936 168.04 601.136 168 601.376 168C601.536 168 601.736 168.12 601.976 168.36C602.296 168.52 602.456 168.72 602.456 168.96V245.28C602.456 247.6 602.616 249.32 602.936 250.44C603.336 251.56 604.056 252.36 605.096 252.84C606.136 253.32 607.736 253.56 609.896 253.56C610.136 253.56 610.256 253.8 610.256 254.28C610.256 254.76 610.136 255 609.896 255C608.136 255 606.696 254.96 605.576 254.88L598.856 254.76L592.376 254.88C591.256 254.96 589.736 255 587.816 255Z" fill="#2C2C2C"/>
<rect y="216" width="376" height="2" fill="#2C2C2C"/>
<rect x="406" y="72" width="208" height="2" fill="#2C2C2C"/>
</svg>
