<svg width="365" height="232" viewBox="0 0 365 232" fill="none" xmlns="http://www.w3.org/2000/svg">
<path d="M101.2 90.8C101.4 90.8 101.5 91 101.5 91.4C101.5 91.8 101.4 92 101.2 92C99.1333 92 97.5 91.9667 96.3 91.9L89.4 91.8L83 91.9C81.9333 91.9667 80.4333 92 78.5 92C78.3667 92 78.3 91.8 78.3 91.4C78.3 91 78.3667 90.8 78.5 90.8C80.7667 90.8 82.4333 90.6333 83.5 90.3C84.6333 89.9 85.3667 89.2333 85.7 88.3C86.1 87.3667 86.2333 85.9 86.1 83.9L84.3 38.4L61.5 91.3C61.3667 91.5667 61.1 91.7 60.7 91.7C60.3667 91.7 60.0667 91.5667 59.8 91.3L35.2 39L34.3 81.1C34.2333 84.6333 34.8333 87.1333 36.1 88.6C37.3667 90.0667 39.6 90.8 42.8 90.8C42.9333 90.8 43 91 43 91.4C43 91.8 42.9333 92 42.8 92C40.9333 92 39.5 91.9667 38.5 91.9L33.1 91.8L27.9 91.9C26.9667 91.9667 25.6333 92 23.9 92C23.7667 92 23.7 91.8 23.7 91.4C23.7 91 23.7667 90.8 23.9 90.8C26.7 90.8 28.7 90.0667 29.9 88.6C31.1667 87.0667 31.8333 84.5667 31.9 81.1L32.8 34.7C30.8 32.0333 28.0667 30.7 24.6 30.7C24.4667 30.7 24.4 30.5 24.4 30.1C24.4 29.7 24.4667 29.5 24.6 29.5L28.3 29.6C28.9667 29.6667 29.9 29.7 31.1 29.7C32.3 29.7 33.3 29.6667 34.1 29.6C34.9667 29.5333 35.6333 29.5 36.1 29.5C36.9667 29.5 37.6667 29.8333 38.2 30.5C38.8 31.1 39.6333 32.5 40.7 34.7L63 81.7L84.8 32C85.5333 30.3333 86.5333 29.5 87.8 29.5C88.1333 29.5 88.6 29.5333 89.2 29.6C89.8667 29.6667 90.7333 29.7 91.8 29.7L96.5 29.6C97.2333 29.5333 98.3333 29.5 99.8 29.5C100 29.5 100.1 29.7 100.1 30.1C100.1 30.5 100 30.7 99.8 30.7C96.4667 30.7 94.0667 31.2 92.6 32.2C91.2 33.1333 90.5333 34.9333 90.6 37.6L92.6 83.9C92.6667 85.9667 92.9 87.4667 93.3 88.4C93.7667 89.3333 94.5667 89.9667 95.7 90.3C96.8333 90.6333 98.6667 90.8 101.2 90.8ZM145.094 86.6C145.36 86.6 145.527 86.7667 145.594 87.1C145.66 87.3667 145.56 87.5667 145.294 87.7L134.994 92.6C134.727 92.7333 134.46 92.8 134.194 92.8C133.327 92.8 132.56 92.2333 131.894 91.1C131.227 89.9 130.794 88.3 130.594 86.3L125.394 89.7C123.727 90.7667 122.26 91.5333 120.994 92C119.727 92.4667 118.394 92.7 116.994 92.7C114.527 92.7 112.594 92.0667 111.194 90.8C109.86 89.4667 109.194 87.8 109.194 85.8C109.194 83.8 109.994 82.0667 111.594 80.6C113.194 79.1333 115.827 77.7333 119.494 76.4L130.494 72.3V65.5C130.494 58.0333 128.394 54.3 124.194 54.3C121.927 54.3 120.194 55.0667 118.994 56.6C117.86 58.0667 117.094 59.7667 116.694 61.7C116.494 62.9 116.127 63.9 115.594 64.7C115.06 65.4333 114.16 65.8 112.894 65.8C111.827 65.8 110.994 65.5 110.394 64.9C109.86 64.3 109.594 63.6 109.594 62.8C109.594 61.2 110.627 59.6 112.694 58C114.76 56.4 117.227 55.0667 120.094 54C122.96 52.9333 125.527 52.4 127.794 52.4C130.527 52.4 132.594 53.2667 133.994 55C135.394 56.7333 136.094 59.2333 136.094 62.5V81.2C136.094 83.5333 136.394 85.2333 136.994 86.3C137.594 87.3667 138.594 87.9 139.994 87.9C141.26 87.9 142.894 87.4667 144.894 86.6H145.094ZM130.494 84.9V84.4V73.7L121.194 77.3C119.327 78.0333 117.96 78.9 117.094 79.9C116.294 80.8333 115.894 81.9667 115.894 83.3C115.894 84.9 116.394 86.2667 117.394 87.4C118.46 88.4667 119.827 89 121.494 89C122.827 89 124.427 88.4667 126.294 87.4L130.494 84.9ZM172.988 52.5C174.455 52.5 175.855 52.9 177.188 53.7C178.522 54.5 179.188 55.4667 179.188 56.6C179.188 57.4667 178.888 58.2 178.288 58.8C177.755 59.4 176.955 59.7 175.888 59.7C175.288 59.7 174.755 59.6 174.288 59.4C173.888 59.1333 173.388 58.7667 172.788 58.3C172.188 57.7667 171.622 57.3667 171.088 57.1C170.555 56.8333 169.922 56.7 169.188 56.7C168.322 56.7 167.388 57.0667 166.388 57.8C165.455 58.5333 163.955 60.1 161.888 62.5V83.9C161.888 85.9 162.122 87.3667 162.588 88.3C163.122 89.2333 164.055 89.9 165.388 90.3C166.722 90.6333 168.788 90.8 171.588 90.8C171.855 90.8 171.988 91 171.988 91.4C171.988 91.8 171.855 92 171.588 92C169.455 92 167.755 91.9667 166.488 91.9L159.088 91.8L153.588 91.9C152.722 91.9667 151.522 92 149.988 92C149.788 92 149.688 91.8 149.688 91.4C149.688 91 149.788 90.8 149.988 90.8C151.788 90.8 153.122 90.6333 153.988 90.3C154.855 89.9 155.422 89.2333 155.688 88.3C156.022 87.3667 156.188 85.9 156.188 83.9V64.1C156.188 61.8333 155.922 60.2 155.388 59.2C154.855 58.2 153.955 57.7 152.688 57.7C151.622 57.7 149.822 58.2 147.288 59.2H147.088C146.822 59.2 146.622 59.0667 146.488 58.8C146.422 58.4667 146.522 58.2333 146.788 58.1L158.388 52.6L158.988 52.5C159.588 52.5 160.222 53.2667 160.888 54.8C161.555 56.3333 161.888 58.3 161.888 60.7V60.8C164.622 57.6 166.788 55.4333 168.388 54.3C169.988 53.1 171.522 52.5 172.988 52.5ZM195.614 40.8C194.214 40.8 193.114 40.4333 192.314 39.7C191.581 38.9667 191.214 37.9333 191.214 36.6C191.214 35.2667 191.581 34.2333 192.314 33.5C193.114 32.7667 194.214 32.4 195.614 32.4C196.947 32.4 197.981 32.7667 198.714 33.5C199.447 34.2333 199.814 35.2667 199.814 36.6C199.814 37.9333 199.447 38.9667 198.714 39.7C197.981 40.4333 196.947 40.8 195.614 40.8ZM187.214 92C187.081 92 187.014 91.8 187.014 91.4C187.014 91 187.081 90.8 187.214 90.8C189.014 90.8 190.347 90.6333 191.214 90.3C192.147 89.9 192.781 89.2333 193.114 88.3C193.447 87.3 193.614 85.8333 193.614 83.9V65.2C193.614 62.8 193.347 61.0667 192.814 60C192.347 58.9333 191.514 58.4 190.314 58.4C189.114 58.4 187.614 58.8667 185.814 59.8H185.714C185.447 59.8 185.247 59.6333 185.114 59.3C184.981 58.9667 185.014 58.7333 185.214 58.6L198.214 52.6L198.614 52.5C198.747 52.5 198.914 52.6 199.114 52.8C199.314 52.9333 199.414 53.1 199.414 53.3C199.414 53.7667 199.381 55.1 199.314 57.3C199.247 59.5 199.214 62.1 199.214 65.1V83.9C199.214 85.9 199.381 87.3667 199.714 88.3C200.047 89.2333 200.647 89.9 201.514 90.3C202.381 90.6333 203.714 90.8 205.514 90.8C205.714 90.8 205.814 91 205.814 91.4C205.814 91.8 205.714 92 205.514 92C203.981 92 202.747 91.9667 201.814 91.9L196.414 91.8L191.014 91.9C190.081 91.9667 188.814 92 187.214 92ZM250.758 86.6C251.024 86.6 251.191 86.7667 251.258 87.1C251.324 87.3667 251.224 87.5667 250.958 87.7L240.658 92.6C240.391 92.7333 240.124 92.8 239.858 92.8C238.991 92.8 238.224 92.2333 237.558 91.1C236.891 89.9 236.458 88.3 236.258 86.3L231.058 89.7C229.391 90.7667 227.924 91.5333 226.658 92C225.391 92.4667 224.058 92.7 222.658 92.7C220.191 92.7 218.258 92.0667 216.858 90.8C215.524 89.4667 214.858 87.8 214.858 85.8C214.858 83.8 215.658 82.0667 217.258 80.6C218.858 79.1333 221.491 77.7333 225.158 76.4L236.158 72.3V65.5C236.158 58.0333 234.058 54.3 229.858 54.3C227.591 54.3 225.858 55.0667 224.658 56.6C223.524 58.0667 222.758 59.7667 222.358 61.7C222.158 62.9 221.791 63.9 221.258 64.7C220.724 65.4333 219.824 65.8 218.558 65.8C217.491 65.8 216.658 65.5 216.058 64.9C215.524 64.3 215.258 63.6 215.258 62.8C215.258 61.2 216.291 59.6 218.358 58C220.424 56.4 222.891 55.0667 225.758 54C228.624 52.9333 231.191 52.4 233.458 52.4C236.191 52.4 238.258 53.2667 239.658 55C241.058 56.7333 241.758 59.2333 241.758 62.5V81.2C241.758 83.5333 242.058 85.2333 242.658 86.3C243.258 87.3667 244.258 87.9 245.658 87.9C246.924 87.9 248.558 87.4667 250.558 86.6H250.758ZM236.158 84.9V84.4V73.7L226.858 77.3C224.991 78.0333 223.624 78.9 222.758 79.9C221.958 80.8333 221.558 81.9667 221.558 83.3C221.558 84.9 222.058 86.2667 223.058 87.4C224.124 88.4667 225.491 89 227.158 89C228.491 89 230.091 88.4667 231.958 87.4L236.158 84.9ZM344.29 90.8C344.557 90.8667 344.657 91.1 344.59 91.5C344.59 91.8333 344.49 92 344.29 92H333.49C330.49 92 325.923 89.6333 319.79 84.9C314.39 90.4333 307.657 93.2 299.59 93.2C295.457 93.2 291.99 92.5 289.19 91.1C286.457 89.7 284.39 87.8667 282.99 85.6C281.657 83.3333 280.99 80.9 280.99 78.3C280.99 74.5 282.157 71.2 284.49 68.4C286.89 65.5333 290.323 62.4667 294.79 59.2C293.59 57.4 292.623 55.7333 291.89 54.2C289.957 49.9333 288.99 46.3 288.99 43.3C288.99 40.4333 289.69 37.8 291.09 35.4C292.49 32.9333 294.457 31 296.99 29.6C299.523 28.1333 302.39 27.4 305.59 27.4C308.79 27.4 311.523 28.1667 313.79 29.7C316.123 31.2333 317.29 33.7667 317.29 37.3C317.29 39.9 316.623 42.2333 315.29 44.3C314.023 46.3667 312.423 48.2 310.49 49.8C308.623 51.3333 306.09 53.1667 302.89 55.3C302.423 55.5667 301.723 56.0333 300.79 56.7C305.39 64.1 312.49 71.5333 322.09 79C324.423 74.9333 325.59 70.4333 325.59 65.5C325.59 63.1 325.09 61.3 324.09 60.1C323.157 58.9 321.29 58.3 318.49 58.3C318.29 58.3 318.157 58.1 318.09 57.7C318.09 57.3 318.223 57.1 318.49 57.1L339.39 57C339.657 57 339.79 57.2 339.79 57.6C339.79 58 339.657 58.2 339.39 58.2C337.123 58.2 335.423 58.4333 334.29 58.9C333.157 59.3 332.357 59.8667 331.89 60.6C331.423 61.3333 330.957 62.5 330.49 64.1C328.557 70.7 326.257 76.0333 323.59 80.1C327.523 82.9667 331.323 85.3333 334.99 87.2C338.657 89.0667 341.757 90.2667 344.29 90.8ZM294.79 39C294.79 44.2 296.523 49.7 299.99 55.5C303.657 52.7667 306.457 50.1333 308.39 47.6C310.39 45 311.39 42.1 311.39 38.9C311.39 35.9667 310.59 33.6667 308.99 32C307.457 30.3333 305.357 29.5 302.69 29.5C297.423 29.5 294.79 32.6667 294.79 39ZM304.09 90.2C309.69 90.2 314.49 88.1 318.49 83.9L316.69 82.4C312.69 79.2667 308.823 75.8 305.09 72C301.423 68.1333 298.257 64.3 295.59 60.5C292.99 62.5667 290.957 64.7667 289.49 67.1C288.09 69.3667 287.39 71.9333 287.39 74.8C287.39 77.6 288.09 80.2 289.49 82.6C290.957 84.9333 292.957 86.8 295.49 88.2C298.09 89.5333 300.957 90.2 304.09 90.2Z" fill="#2C2C2C"/>
<path d="M154.1 201.8C154.3 201.8 154.4 202 154.4 202.4C154.4 202.8 154.3 203 154.1 203H142.9C142.367 203 141.4 203 140 203C138.667 203.067 136.767 201.4 134.3 198C131.833 194.533 129.467 191.367 127.2 188.5L111.9 169.2L108.6 172.4V194.9C108.6 196.9 108.8 198.4 109.2 199.4C109.6 200.333 110.367 200.967 111.5 201.3C112.7 201.633 114.567 201.8 117.1 201.8C117.3 201.8 117.4 202 117.4 202.4C117.4 202.8 117.3 203 117.1 203C115.1 203 113.5 202.967 112.3 202.9L105.3 202.8L98.5 202.9C97.3 202.967 95.6333 203 93.5 203C93.3667 203 93.3 202.8 93.3 202.4C93.3 202 93.3667 201.8 93.5 201.8C96.0333 201.8 97.8667 201.633 99 201.3C100.2 200.967 101 200.333 101.4 199.4C101.867 198.4 102.1 196.9 102.1 194.9V148.6C102.1 146.6 101.9 145.133 101.5 144.2C101.1 143.267 100.3 142.633 99.1 142.3C97.9667 141.9 96.1333 141.7 93.6 141.7C93.4667 141.7 93.4 141.5 93.4 141.1C93.4 140.7 93.4667 140.5 93.6 140.5L98.6 140.6C101.4 140.733 103.633 140.8 105.3 140.8C107.233 140.8 109.6 140.733 112.4 140.6L117.1 140.5C117.3 140.5 117.4 140.7 117.4 141.1C117.4 141.5 117.3 141.7 117.1 141.7C114.633 141.7 112.8 141.9 111.6 142.3C110.467 142.7 109.667 143.4 109.2 144.4C108.8 145.333 108.6 146.8 108.6 148.8V169.9L130 148.6C132.2 146.4 133.3 144.767 133.3 143.7C133.3 142.367 131.333 141.7 127.4 141.7C127.267 141.7 127.2 141.5 127.2 141.1C127.2 140.7 127.267 140.5 127.4 140.5L131.7 140.6C134.367 140.733 136.8 140.8 139 140.8C141.2 140.8 143.5 140.733 145.9 140.6L149.6 140.5C149.8 140.5 149.9 140.7 149.9 141.1C149.9 141.5 149.8 141.7 149.6 141.7C146.867 141.7 143.967 142.3 140.9 143.5C137.833 144.7 134.967 146.6 132.3 149.2L116.5 164.7L130.9 183.1C135.767 189.433 139.467 193.9 142 196.5C144.6 199.1 146.6 200.633 148 201.1C149.4 201.567 151.433 201.8 154.1 201.8ZM195.66 197.6C195.927 197.6 196.093 197.767 196.16 198.1C196.227 198.367 196.127 198.567 195.86 198.7L185.56 203.6C185.293 203.733 185.027 203.8 184.76 203.8C183.893 203.8 183.127 203.233 182.46 202.1C181.793 200.9 181.36 199.3 181.16 197.3L175.96 200.7C174.293 201.767 172.827 202.533 171.56 203C170.293 203.467 168.96 203.7 167.56 203.7C165.093 203.7 163.16 203.067 161.76 201.8C160.427 200.467 159.76 198.8 159.76 196.8C159.76 194.8 160.56 193.067 162.16 191.6C163.76 190.133 166.393 188.733 170.06 187.4L181.06 183.3V176.5C181.06 169.033 178.96 165.3 174.76 165.3C172.493 165.3 170.76 166.067 169.56 167.6C168.427 169.067 167.66 170.767 167.26 172.7C167.06 173.9 166.693 174.9 166.16 175.7C165.627 176.433 164.727 176.8 163.46 176.8C162.393 176.8 161.56 176.5 160.96 175.9C160.427 175.3 160.16 174.6 160.16 173.8C160.16 172.2 161.193 170.6 163.26 169C165.327 167.4 167.793 166.067 170.66 165C173.527 163.933 176.093 163.4 178.36 163.4C181.093 163.4 183.16 164.267 184.56 166C185.96 167.733 186.66 170.233 186.66 173.5V192.2C186.66 194.533 186.96 196.233 187.56 197.3C188.16 198.367 189.16 198.9 190.56 198.9C191.827 198.9 193.46 198.467 195.46 197.6H195.66ZM181.06 195.9V195.4V184.7L171.76 188.3C169.893 189.033 168.527 189.9 167.66 190.9C166.86 191.833 166.46 192.967 166.46 194.3C166.46 195.9 166.96 197.267 167.96 198.4C169.027 199.467 170.393 200 172.06 200C173.393 200 174.993 199.467 176.86 198.4L181.06 195.9ZM200.055 203C199.855 203 199.755 202.8 199.755 202.4C199.755 202 199.855 201.8 200.055 201.8C201.855 201.8 203.188 201.633 204.055 201.3C204.921 200.9 205.521 200.233 205.855 199.3C206.188 198.3 206.355 196.833 206.355 194.9V143.2C206.355 140.8 206.121 139.067 205.655 138C205.188 136.933 204.355 136.4 203.155 136.4C202.155 136.4 200.621 136.867 198.555 137.8H198.355C198.155 137.8 197.988 137.633 197.855 137.3C197.788 136.967 197.855 136.767 198.055 136.7L210.855 130.6C210.988 130.533 211.155 130.5 211.355 130.5C211.488 130.5 211.655 130.6 211.855 130.8C212.121 130.933 212.255 131.1 212.255 131.3V194.9C212.255 196.833 212.388 198.267 212.655 199.2C212.988 200.133 213.588 200.8 214.455 201.2C215.321 201.6 216.655 201.8 218.455 201.8C218.655 201.8 218.755 202 218.755 202.4C218.755 202.8 218.655 203 218.455 203C216.988 203 215.788 202.967 214.855 202.9L209.255 202.8L203.855 202.9C202.921 202.967 201.655 203 200.055 203ZM235.536 151.8C234.136 151.8 233.036 151.433 232.236 150.7C231.503 149.967 231.136 148.933 231.136 147.6C231.136 146.267 231.503 145.233 232.236 144.5C233.036 143.767 234.136 143.4 235.536 143.4C236.869 143.4 237.903 143.767 238.636 144.5C239.369 145.233 239.736 146.267 239.736 147.6C239.736 148.933 239.369 149.967 238.636 150.7C237.903 151.433 236.869 151.8 235.536 151.8ZM227.136 203C227.003 203 226.936 202.8 226.936 202.4C226.936 202 227.003 201.8 227.136 201.8C228.936 201.8 230.269 201.633 231.136 201.3C232.069 200.9 232.703 200.233 233.036 199.3C233.369 198.3 233.536 196.833 233.536 194.9V176.2C233.536 173.8 233.269 172.067 232.736 171C232.269 169.933 231.436 169.4 230.236 169.4C229.036 169.4 227.536 169.867 225.736 170.8H225.636C225.369 170.8 225.169 170.633 225.036 170.3C224.903 169.967 224.936 169.733 225.136 169.6L238.136 163.6L238.536 163.5C238.669 163.5 238.836 163.6 239.036 163.8C239.236 163.933 239.336 164.1 239.336 164.3C239.336 164.767 239.303 166.1 239.236 168.3C239.169 170.5 239.136 173.1 239.136 176.1V194.9C239.136 196.9 239.303 198.367 239.636 199.3C239.969 200.233 240.569 200.9 241.436 201.3C242.303 201.633 243.636 201.8 245.436 201.8C245.636 201.8 245.736 202 245.736 202.4C245.736 202.8 245.636 203 245.436 203C243.903 203 242.669 202.967 241.736 202.9L236.336 202.8L230.936 202.9C230.003 202.967 228.736 203 227.136 203ZM253.18 203C252.98 203 252.88 202.8 252.88 202.4C252.88 202 252.98 201.8 253.18 201.8C254.98 201.8 256.313 201.633 257.18 201.3C258.046 200.9 258.646 200.233 258.98 199.3C259.313 198.3 259.48 196.833 259.48 194.9V143.2C259.48 140.8 259.246 139.067 258.78 138C258.313 136.933 257.48 136.4 256.28 136.4C255.28 136.4 253.746 136.867 251.68 137.8H251.48C251.28 137.8 251.113 137.633 250.98 137.3C250.913 136.967 250.98 136.767 251.18 136.7L263.98 130.6C264.113 130.533 264.28 130.5 264.48 130.5C264.613 130.5 264.78 130.6 264.98 130.8C265.246 130.933 265.38 131.1 265.38 131.3V194.9C265.38 196.833 265.513 198.267 265.78 199.2C266.113 200.133 266.713 200.8 267.58 201.2C268.446 201.6 269.78 201.8 271.58 201.8C271.78 201.8 271.88 202 271.88 202.4C271.88 202.8 271.78 203 271.58 203C270.113 203 268.913 202.967 267.98 202.9L262.38 202.8L256.98 202.9C256.046 202.967 254.78 203 253.18 203Z" fill="#2C2C2C"/>
<rect y="175" width="83" height="2" fill="#2C2C2C"/>
<rect x="2" y="65" width="11" height="2" fill="#2C2C2C"/>
<rect y="65" width="2" height="112" fill="#2C2C2C"/>
<rect width="83" height="2" transform="matrix(-1 0 0 1 365 175)" fill="#2C2C2C"/>
<rect width="11" height="2" transform="matrix(-1 0 0 1 363 65)" fill="#2C2C2C"/>
<rect width="2" height="112" transform="matrix(-1 0 0 1 365 65)" fill="#2C2C2C"/>
</svg>
