<svg xmlns="http://www.w3.org/2000/svg" width="49" height="49" fill="none" viewBox="0 0 49 49"><path fill="#fff" d="M1.68 26V8.72H4.284L10.26 20.96L16.236 8.72H18.84V26H16.14V14.924L10.836 26H9.684L4.392 14.924V26H1.68ZM26.2553 26.36C25.2952 26.36 24.3872 26.22 23.5312 25.94C22.6832 25.652 21.9752 25.2 21.4072 24.584C20.9512 24.08 20.6152 23.532 20.3992 22.94C20.1912 22.34 20.0752 21.7 20.0512 21.02C20.0512 20.356 20.1472 19.712 20.3392 19.088C20.5392 18.464 20.8432 17.912 21.2512 17.432C21.4112 17.24 21.5832 17.072 21.7672 16.928C21.9592 16.776 22.1512 16.64 22.3432 16.52C21.8712 15.992 21.5112 15.48 21.2632 14.984C21.0232 14.488 20.9032 13.904 20.9032 13.232C20.9032 12.224 21.1752 11.32 21.7192 10.52C22.2632 9.72 23.0032 9.144 23.9392 8.792C24.3472 8.64 24.7592 8.536 25.1752 8.48C25.5993 8.424 26.0113 8.396 26.4113 8.396C27.1633 8.396 27.8873 8.512 28.5833 8.744C29.2793 8.968 29.8713 9.336 30.3593 9.848C30.6713 10.144 30.9313 10.48 31.1393 10.856C31.3473 11.224 31.5033 11.604 31.6073 11.996L28.7513 12.608C28.6393 12.248 28.4433 11.94 28.1632 11.684C27.9233 11.452 27.6393 11.3 27.3113 11.228C26.9833 11.148 26.6593 11.108 26.3392 11.108C25.8272 11.108 25.3752 11.2 24.9833 11.384C24.5912 11.568 24.2992 11.816 24.1072 12.128C23.9232 12.44 23.8312 12.82 23.8312 13.268C23.8312 13.668 23.9032 13.988 24.0473 14.228C24.1992 14.468 24.3832 14.712 24.5993 14.96C24.7432 15.12 24.9192 15.296 25.1272 15.488C25.3352 15.68 25.5512 15.88 25.7752 16.088L30.1193 20.108C30.1273 19.948 30.1313 19.776 30.1313 19.592C30.1313 19.4 30.1313 19.22 30.1313 19.052V16.94H32.6753V20.072C32.6753 20.504 32.6633 20.924 32.6393 21.332C32.6153 21.732 32.5673 22.064 32.4953 22.328L34.6433 24.296L32.7832 26.276L31.1153 24.692C30.7073 25.076 30.2593 25.388 29.7713 25.628C29.2833 25.868 28.7913 26.04 28.2953 26.144C27.9353 26.232 27.5913 26.288 27.2633 26.312C26.9353 26.344 26.5993 26.36 26.2553 26.36ZM26.3753 23.612C26.6233 23.612 26.8553 23.6 27.0713 23.576C27.2953 23.552 27.5113 23.504 27.7192 23.432C28.0152 23.344 28.2673 23.24 28.4753 23.12C28.6913 23 28.8793 22.876 29.0393 22.748L24.4672 18.548C24.2512 18.628 24.0552 18.732 23.8793 18.86C23.7113 18.98 23.5673 19.116 23.4472 19.268C23.2952 19.468 23.1752 19.704 23.0872 19.976C23.0072 20.24 22.9672 20.532 22.9672 20.852C22.9752 21.22 23.0352 21.548 23.1472 21.836C23.2592 22.116 23.4072 22.368 23.5912 22.592C23.8792 22.96 24.2912 23.224 24.8273 23.384C25.3632 23.536 25.8792 23.612 26.3753 23.612ZM34.9059 26V8.72H37.7979V16.736L44.6979 8.72H48.2499L40.8219 17.192L48.7539 26H45.0819L37.7979 17.936V26H34.9059Z"/><path fill="#fff" d="M4.96 46V37.36H6.406V44.644H10.222V46H4.96ZM16.5781 46.18C15.7141 46.18 14.9741 45.992 14.3581 45.616C13.7421 45.236 13.2681 44.708 12.9361 44.032C12.6081 43.356 12.4441 42.572 12.4441 41.68C12.4441 40.788 12.6081 40.004 12.9361 39.328C13.2681 38.652 13.7421 38.126 14.3581 37.75C14.9741 37.37 15.7141 37.18 16.5781 37.18C17.4421 37.18 18.1821 37.37 18.7981 37.75C19.4181 38.126 19.8921 38.652 20.2201 39.328C20.5521 40.004 20.7181 40.788 20.7181 41.68C20.7181 42.572 20.5521 43.356 20.2201 44.032C19.8921 44.708 19.4181 45.236 18.7981 45.616C18.1821 45.992 17.4421 46.18 16.5781 46.18ZM16.5781 44.818C17.1581 44.822 17.6401 44.694 18.0241 44.434C18.4121 44.174 18.7021 43.808 18.8941 43.336C19.0901 42.864 19.1881 42.312 19.1881 41.68C19.1881 41.048 19.0901 40.5 18.8941 40.036C18.7021 39.568 18.4121 39.204 18.0241 38.944C17.6401 38.684 17.1581 38.55 16.5781 38.542C15.9981 38.538 15.5161 38.666 15.1321 38.926C14.7481 39.186 14.4581 39.552 14.2621 40.024C14.0701 40.496 13.9741 41.048 13.9741 41.68C13.9741 42.312 14.0701 42.862 14.2621 43.33C14.4541 43.794 14.7421 44.156 15.1261 44.416C15.5141 44.676 15.9981 44.81 16.5781 44.818ZM25.4131 46L22.6891 37.36H24.1771L26.4571 44.596L28.7671 37.36H30.2551L27.5311 46H25.4131ZM33.0766 46V37.36H38.6566V38.716H34.5226V40.846H37.9366V42.202H34.5226V44.644H38.6566V46H33.0766ZM41.8961 47.53L41.9801 46.906C42.1641 46.922 42.3101 46.89 42.4181 46.81C42.5261 46.734 42.5981 46.624 42.6341 46.48C42.6741 46.34 42.6841 46.18 42.6641 46H41.8961V44.458H43.3781V46.06C43.3781 46.584 43.2541 46.98 43.0061 47.248C42.7581 47.516 42.3881 47.61 41.8961 47.53Z"/></svg>