<svg width="114" height="49" viewBox="0 0 114 49" fill="none" xmlns="http://www.w3.org/2000/svg">
<path d="M1.68 26V8.72H4.284L10.26 20.96L16.236 8.72H18.84V26H16.14V14.924L10.836 26H9.684L4.392 14.924V26H1.68ZM24.1553 26.36C23.2192 26.36 22.4272 26.184 21.7792 25.832C21.1312 25.472 20.6392 24.996 20.3032 24.404C19.9752 23.812 19.8112 23.16 19.8112 22.448C19.8112 21.824 19.9152 21.264 20.1232 20.768C20.3312 20.264 20.6512 19.832 21.0832 19.472C21.5152 19.104 22.0752 18.804 22.7632 18.572C23.2832 18.404 23.8913 18.252 24.5872 18.116C25.2913 17.98 26.0513 17.856 26.8673 17.744C27.6913 17.624 28.5512 17.496 29.4472 17.36L28.4153 17.948C28.4233 17.052 28.2233 16.392 27.8153 15.968C27.4073 15.544 26.7193 15.332 25.7513 15.332C25.1673 15.332 24.6033 15.468 24.0592 15.74C23.5152 16.012 23.1352 16.48 22.9192 17.144L20.2792 16.316C20.5992 15.22 21.2072 14.34 22.1033 13.676C23.0072 13.012 24.2232 12.68 25.7513 12.68C26.9033 12.68 27.9153 12.868 28.7873 13.244C29.6673 13.62 30.3193 14.236 30.7433 15.092C30.9753 15.548 31.1153 16.016 31.1632 16.496C31.2113 16.968 31.2353 17.484 31.2353 18.044V26H28.7033V23.192L29.1233 23.648C28.5393 24.584 27.8553 25.272 27.0713 25.712C26.2952 26.144 25.3232 26.36 24.1553 26.36ZM24.7312 24.056C25.3872 24.056 25.9473 23.94 26.4113 23.708C26.8753 23.476 27.2433 23.192 27.5153 22.856C27.7953 22.52 27.9833 22.204 28.0793 21.908C28.2313 21.54 28.3153 21.12 28.3312 20.648C28.3553 20.168 28.3673 19.78 28.3673 19.484L29.2553 19.748C28.3832 19.884 27.6352 20.004 27.0112 20.108C26.3873 20.212 25.8513 20.312 25.4032 20.408C24.9552 20.496 24.5592 20.596 24.2153 20.708C23.8793 20.828 23.5953 20.968 23.3632 21.128C23.1312 21.288 22.9512 21.472 22.8233 21.68C22.7032 21.888 22.6432 22.132 22.6432 22.412C22.6432 22.732 22.7232 23.016 22.8832 23.264C23.0432 23.504 23.2752 23.696 23.5792 23.84C23.8913 23.984 24.2752 24.056 24.7312 24.056ZM32.6794 26V13.04H35.2354V16.196L34.9234 15.788C35.0834 15.356 35.2954 14.964 35.5594 14.612C35.8314 14.252 36.1554 13.956 36.5314 13.724C36.8514 13.508 37.2034 13.34 37.5874 13.22C37.9794 13.092 38.3794 13.016 38.7874 12.992C39.1954 12.96 39.5914 12.976 39.9754 13.04V15.74C39.5914 15.628 39.1474 15.592 38.6434 15.632C38.1474 15.672 37.6994 15.812 37.2994 16.052C36.8994 16.268 36.5714 16.544 36.3154 16.88C36.0674 17.216 35.8834 17.6 35.7634 18.032C35.6434 18.456 35.5834 18.916 35.5834 19.412V26H32.6794ZM40.8253 11.072V8.42H43.7173V11.072H40.8253ZM40.8253 26V13.04H43.7173V26H40.8253ZM49.2559 26.36C48.3199 26.36 47.5279 26.184 46.8799 25.832C46.2319 25.472 45.7399 24.996 45.4039 24.404C45.0759 23.812 44.9119 23.16 44.9119 22.448C44.9119 21.824 45.0159 21.264 45.2239 20.768C45.4319 20.264 45.7519 19.832 46.1839 19.472C46.6159 19.104 47.1759 18.804 47.8639 18.572C48.3839 18.404 48.9919 18.252 49.6879 18.116C50.3919 17.98 51.1519 17.856 51.9679 17.744C52.7919 17.624 53.6519 17.496 54.5479 17.36L53.5159 17.948C53.5239 17.052 53.3239 16.392 52.9159 15.968C52.5079 15.544 51.8199 15.332 50.8519 15.332C50.2679 15.332 49.7039 15.468 49.1599 15.74C48.6159 16.012 48.2359 16.48 48.0199 17.144L45.3799 16.316C45.6999 15.22 46.3079 14.34 47.2039 13.676C48.1079 13.012 49.3239 12.68 50.8519 12.68C52.0039 12.68 53.0159 12.868 53.8879 13.244C54.7679 13.62 55.4199 14.236 55.8439 15.092C56.0759 15.548 56.2159 16.016 56.2639 16.496C56.3119 16.968 56.3359 17.484 56.3359 18.044V26H53.8039V23.192L54.2239 23.648C53.6399 24.584 52.9559 25.272 52.1719 25.712C51.3959 26.144 50.4239 26.36 49.2559 26.36ZM49.8319 24.056C50.4879 24.056 51.0479 23.94 51.5119 23.708C51.9759 23.476 52.3439 23.192 52.6159 22.856C52.8959 22.52 53.0839 22.204 53.1799 21.908C53.3319 21.54 53.4159 21.12 53.4319 20.648C53.4559 20.168 53.4679 19.78 53.4679 19.484L54.3559 19.748C53.4839 19.884 52.7359 20.004 52.1119 20.108C51.4879 20.212 50.9519 20.312 50.5039 20.408C50.0559 20.496 49.6599 20.596 49.3159 20.708C48.9799 20.828 48.6959 20.968 48.4639 21.128C48.2319 21.288 48.0519 21.472 47.9239 21.68C47.8039 21.888 47.7439 22.132 47.7439 22.412C47.7439 22.732 47.8239 23.016 47.9839 23.264C48.1439 23.504 48.3759 23.696 48.6799 23.84C48.9919 23.984 49.3759 24.056 49.8319 24.056ZM63.504 26.36C62.544 26.36 61.636 26.22 60.78 25.94C59.932 25.652 59.224 25.2 58.656 24.584C58.2 24.08 57.864 23.532 57.648 22.94C57.44 22.34 57.324 21.7 57.3 21.02C57.3 20.356 57.396 19.712 57.588 19.088C57.788 18.464 58.092 17.912 58.5 17.432C58.66 17.24 58.832 17.072 59.016 16.928C59.208 16.776 59.4 16.64 59.592 16.52C59.12 15.992 58.76 15.48 58.512 14.984C58.272 14.488 58.152 13.904 58.152 13.232C58.152 12.224 58.424 11.32 58.968 10.52C59.512 9.72 60.252 9.144 61.188 8.792C61.596 8.64 62.008 8.536 62.424 8.48C62.848 8.424 63.26 8.396 63.66 8.396C64.412 8.396 65.136 8.512 65.832 8.744C66.528 8.968 67.12 9.336 67.608 9.848C67.92 10.144 68.18 10.48 68.388 10.856C68.596 11.224 68.752 11.604 68.856 11.996L66 12.608C65.888 12.248 65.692 11.94 65.412 11.684C65.172 11.452 64.888 11.3 64.56 11.228C64.232 11.148 63.908 11.108 63.588 11.108C63.076 11.108 62.624 11.2 62.232 11.384C61.84 11.568 61.548 11.816 61.356 12.128C61.172 12.44 61.08 12.82 61.08 13.268C61.08 13.668 61.152 13.988 61.296 14.228C61.448 14.468 61.632 14.712 61.848 14.96C61.992 15.12 62.168 15.296 62.376 15.488C62.584 15.68 62.8 15.88 63.024 16.088L67.368 20.108C67.376 19.948 67.38 19.776 67.38 19.592C67.38 19.4 67.38 19.22 67.38 19.052V16.94H69.924V20.072C69.924 20.504 69.912 20.924 69.888 21.332C69.864 21.732 69.816 22.064 69.744 22.328L71.892 24.296L70.032 26.276L68.364 24.692C67.956 25.076 67.508 25.388 67.02 25.628C66.532 25.868 66.04 26.04 65.544 26.144C65.184 26.232 64.84 26.288 64.512 26.312C64.184 26.344 63.848 26.36 63.504 26.36ZM63.624 23.612C63.872 23.612 64.104 23.6 64.32 23.576C64.544 23.552 64.76 23.504 64.968 23.432C65.264 23.344 65.516 23.24 65.724 23.12C65.94 23 66.128 22.876 66.288 22.748L61.716 18.548C61.5 18.628 61.304 18.732 61.128 18.86C60.96 18.98 60.816 19.116 60.696 19.268C60.544 19.468 60.424 19.704 60.336 19.976C60.256 20.24 60.216 20.532 60.216 20.852C60.224 21.22 60.284 21.548 60.396 21.836C60.508 22.116 60.656 22.368 60.84 22.592C61.128 22.96 61.54 23.224 62.076 23.384C62.612 23.536 63.128 23.612 63.624 23.612ZM72.1547 26V8.72H75.0467V16.736L81.9467 8.72H85.4987L78.0707 17.192L86.0027 26H82.3307L75.0467 17.936V26H72.1547ZM89.6377 26.36C88.7017 26.36 87.9097 26.184 87.2617 25.832C86.6137 25.472 86.1217 24.996 85.7857 24.404C85.4577 23.812 85.2937 23.16 85.2937 22.448C85.2937 21.824 85.3977 21.264 85.6057 20.768C85.8137 20.264 86.1337 19.832 86.5657 19.472C86.9977 19.104 87.5577 18.804 88.2457 18.572C88.7657 18.404 89.3737 18.252 90.0697 18.116C90.7737 17.98 91.5337 17.856 92.3497 17.744C93.1737 17.624 94.0337 17.496 94.9297 17.36L93.8977 17.948C93.9057 17.052 93.7057 16.392 93.2977 15.968C92.8897 15.544 92.2017 15.332 91.2337 15.332C90.6497 15.332 90.0857 15.468 89.5417 15.74C88.9977 16.012 88.6177 16.48 88.4017 17.144L85.7617 16.316C86.0817 15.22 86.6897 14.34 87.5857 13.676C88.4897 13.012 89.7057 12.68 91.2337 12.68C92.3857 12.68 93.3977 12.868 94.2697 13.244C95.1497 13.62 95.8017 14.236 96.2257 15.092C96.4577 15.548 96.5977 16.016 96.6457 16.496C96.6937 16.968 96.7177 17.484 96.7177 18.044V26H94.1857V23.192L94.6057 23.648C94.0217 24.584 93.3377 25.272 92.5537 25.712C91.7777 26.144 90.8057 26.36 89.6377 26.36ZM90.2137 24.056C90.8697 24.056 91.4297 23.94 91.8937 23.708C92.3577 23.476 92.7257 23.192 92.9977 22.856C93.2777 22.52 93.4657 22.204 93.5617 21.908C93.7137 21.54 93.7977 21.12 93.8137 20.648C93.8377 20.168 93.8497 19.78 93.8497 19.484L94.7377 19.748C93.8657 19.884 93.1177 20.004 92.4937 20.108C91.8697 20.212 91.3337 20.312 90.8857 20.408C90.4377 20.496 90.0417 20.596 89.6977 20.708C89.3617 20.828 89.0777 20.968 88.8457 21.128C88.6137 21.288 88.4337 21.472 88.3057 21.68C88.1857 21.888 88.1257 22.132 88.1257 22.412C88.1257 22.732 88.2057 23.016 88.3657 23.264C88.5257 23.504 88.7577 23.696 89.0617 23.84C89.3737 23.984 89.7577 24.056 90.2137 24.056ZM98.4019 26V8.36H101.294V26H98.4019ZM103.448 11.072V8.42H106.34V11.072H103.448ZM103.448 26V13.04H106.34V26H103.448ZM108.495 26V8.36H111.387V26H108.495Z" fill="white"/>
<path d="M19.494 46.18C18.63 46.18 17.89 45.992 17.274 45.616C16.658 45.236 16.184 44.708 15.852 44.032C15.524 43.356 15.36 42.572 15.36 41.68C15.36 40.788 15.524 40.004 15.852 39.328C16.184 38.652 16.658 38.126 17.274 37.75C17.89 37.37 18.63 37.18 19.494 37.18C20.49 37.18 21.32 37.43 21.984 37.93C22.648 38.426 23.114 39.096 23.382 39.94L21.924 40.342C21.756 39.778 21.47 39.338 21.066 39.022C20.662 38.702 20.138 38.542 19.494 38.542C18.914 38.542 18.43 38.672 18.042 38.932C17.658 39.192 17.368 39.558 17.172 40.03C16.98 40.498 16.882 41.048 16.878 41.68C16.878 42.312 16.974 42.864 17.166 43.336C17.362 43.804 17.654 44.168 18.042 44.428C18.43 44.688 18.914 44.818 19.494 44.818C20.138 44.818 20.662 44.658 21.066 44.338C21.47 44.018 21.756 43.578 21.924 43.018L23.382 43.42C23.114 44.264 22.648 44.936 21.984 45.436C21.32 45.932 20.49 46.18 19.494 46.18ZM30.2734 46.18C29.4094 46.18 28.6694 45.992 28.0534 45.616C27.4374 45.236 26.9634 44.708 26.6314 44.032C26.3034 43.356 26.1394 42.572 26.1394 41.68C26.1394 40.788 26.3034 40.004 26.6314 39.328C26.9634 38.652 27.4374 38.126 28.0534 37.75C28.6694 37.37 29.4094 37.18 30.2734 37.18C31.1374 37.18 31.8774 37.37 32.4934 37.75C33.1134 38.126 33.5874 38.652 33.9154 39.328C34.2474 40.004 34.4134 40.788 34.4134 41.68C34.4134 42.572 34.2474 43.356 33.9154 44.032C33.5874 44.708 33.1134 45.236 32.4934 45.616C31.8774 45.992 31.1374 46.18 30.2734 46.18ZM30.2734 44.818C30.8534 44.822 31.3354 44.694 31.7194 44.434C32.1074 44.174 32.3974 43.808 32.5894 43.336C32.7854 42.864 32.8834 42.312 32.8834 41.68C32.8834 41.048 32.7854 40.5 32.5894 40.036C32.3974 39.568 32.1074 39.204 31.7194 38.944C31.3354 38.684 30.8534 38.55 30.2734 38.542C29.6934 38.538 29.2114 38.666 28.8274 38.926C28.4434 39.186 28.1534 39.552 27.9574 40.024C27.7654 40.496 27.6694 41.048 27.6694 41.68C27.6694 42.312 27.7654 42.862 27.9574 43.33C28.1494 43.794 28.4374 44.156 28.8214 44.416C29.2094 44.676 29.6934 44.81 30.2734 44.818ZM37.5277 46V37.36H38.8297L41.8177 43.48L44.8057 37.36H46.1077V46H44.7577V40.462L42.1057 46H41.5297L38.8837 40.462V46H37.5277ZM53.4356 46L56.1596 37.36H58.2776L61.0016 46H59.5136L57.0416 38.248H57.3656L54.9236 46H53.4356ZM54.9536 44.128V42.778H59.4896V44.128H54.9536ZM64.0064 46V37.36H65.3084L68.2964 43.48L71.2844 37.36H72.5864V46H71.2364V40.462L68.5844 46H68.0084L65.3624 40.462V46H64.0064ZM79.846 46.18C78.982 46.18 78.242 45.992 77.626 45.616C77.01 45.236 76.536 44.708 76.204 44.032C75.876 43.356 75.712 42.572 75.712 41.68C75.712 40.788 75.876 40.004 76.204 39.328C76.536 38.652 77.01 38.126 77.626 37.75C78.242 37.37 78.982 37.18 79.846 37.18C80.71 37.18 81.45 37.37 82.066 37.75C82.686 38.126 83.16 38.652 83.488 39.328C83.82 40.004 83.986 40.788 83.986 41.68C83.986 42.572 83.82 43.356 83.488 44.032C83.16 44.708 82.686 45.236 82.066 45.616C81.45 45.992 80.71 46.18 79.846 46.18ZM79.846 44.818C80.426 44.822 80.908 44.694 81.292 44.434C81.68 44.174 81.97 43.808 82.162 43.336C82.358 42.864 82.456 42.312 82.456 41.68C82.456 41.048 82.358 40.5 82.162 40.036C81.97 39.568 81.68 39.204 81.292 38.944C80.908 38.684 80.426 38.55 79.846 38.542C79.266 38.538 78.784 38.666 78.4 38.926C78.016 39.186 77.726 39.552 77.53 40.024C77.338 40.496 77.242 41.048 77.242 41.68C77.242 42.312 77.338 42.862 77.53 43.33C77.722 43.794 78.01 44.156 78.394 44.416C78.782 44.676 79.266 44.81 79.846 44.818ZM87.1003 46V37.36H90.6703C90.7543 37.36 90.8623 37.364 90.9943 37.372C91.1263 37.376 91.2483 37.388 91.3603 37.408C91.8603 37.484 92.2723 37.65 92.5963 37.906C92.9243 38.162 93.1663 38.486 93.3223 38.878C93.4823 39.266 93.5623 39.698 93.5623 40.174C93.5623 40.878 93.3843 41.484 93.0283 41.992C92.6723 42.496 92.1263 42.808 91.3903 42.928L90.7723 42.982H88.5463V46H87.1003ZM92.0623 46L90.3583 42.484L91.8283 42.16L93.7003 46H92.0623ZM88.5463 41.632H90.6103C90.6903 41.632 90.7803 41.628 90.8803 41.62C90.9803 41.612 91.0723 41.596 91.1563 41.572C91.3963 41.512 91.5843 41.406 91.7203 41.254C91.8603 41.102 91.9583 40.93 92.0143 40.738C92.0743 40.546 92.1043 40.358 92.1043 40.174C92.1043 39.99 92.0743 39.802 92.0143 39.61C91.9583 39.414 91.8603 39.24 91.7203 39.088C91.5843 38.936 91.3963 38.83 91.1563 38.77C91.0723 38.746 90.9803 38.732 90.8803 38.728C90.7803 38.72 90.6903 38.716 90.6103 38.716H88.5463V41.632ZM96.8222 47.53L96.9062 46.906C97.0902 46.922 97.2362 46.89 97.3442 46.81C97.4522 46.734 97.5242 46.624 97.5602 46.48C97.6002 46.34 97.6102 46.18 97.5902 46H96.8222V44.458H98.3042V46.06C98.3042 46.584 98.1802 46.98 97.9322 47.248C97.6842 47.516 97.3142 47.61 96.8222 47.53Z" fill="white"/>
</svg>
