<svg width="25" height="25" viewBox="0 0 25 25" fill="none" xmlns="http://www.w3.org/2000/svg">
<mask id="mask0_360_37" style="mask-type:alpha" maskUnits="userSpaceOnUse" x="0" y="0" width="25" height="25">
<rect x="0.941372" y="0.444778" width="24" height="24" fill="#D9D9D9"/>
</mask>
<g mask="url(#mask0_360_37)">
<path d="M7.94137 13.9448C8.35804 13.9448 8.71221 13.7989 9.00387 13.5073C9.29554 13.2156 9.44137 12.8614 9.44137 12.4448C9.44137 12.0281 9.29554 11.6739 9.00387 11.3823C8.71221 11.0906 8.35804 10.9448 7.94137 10.9448C7.52471 10.9448 7.17054 11.0906 6.87887 11.3823C6.58721 11.6739 6.44137 12.0281 6.44137 12.4448C6.44137 12.8614 6.58721 13.2156 6.87887 13.5073C7.17054 13.7989 7.52471 13.9448 7.94137 13.9448ZM12.9414 13.9448C13.358 13.9448 13.7122 13.7989 14.0039 13.5073C14.2955 13.2156 14.4414 12.8614 14.4414 12.4448C14.4414 12.0281 14.2955 11.6739 14.0039 11.3823C13.7122 11.0906 13.358 10.9448 12.9414 10.9448C12.5247 10.9448 12.1705 11.0906 11.8789 11.3823C11.5872 11.6739 11.4414 12.0281 11.4414 12.4448C11.4414 12.8614 11.5872 13.2156 11.8789 13.5073C12.1705 13.7989 12.5247 13.9448 12.9414 13.9448ZM17.9414 13.9448C18.358 13.9448 18.7122 13.7989 19.0039 13.5073C19.2955 13.2156 19.4414 12.8614 19.4414 12.4448C19.4414 12.0281 19.2955 11.6739 19.0039 11.3823C18.7122 11.0906 18.358 10.9448 17.9414 10.9448C17.5247 10.9448 17.1705 11.0906 16.8789 11.3823C16.5872 11.6739 16.4414 12.0281 16.4414 12.4448C16.4414 12.8614 16.5872 13.2156 16.8789 13.5073C17.1705 13.7989 17.5247 13.9448 17.9414 13.9448ZM12.9414 22.4448C11.558 22.4448 10.258 22.1823 9.04137 21.6573C7.82471 21.1323 6.76637 20.4198 5.86637 19.5198C4.96637 18.6198 4.25387 17.5614 3.72887 16.3448C3.20387 15.1281 2.94137 13.8281 2.94137 12.4448C2.94137 11.0614 3.20387 9.76145 3.72887 8.54478C4.25387 7.32811 4.96637 6.26978 5.86637 5.36978C6.76637 4.46978 7.82471 3.75728 9.04137 3.23228C10.258 2.70728 11.558 2.44478 12.9414 2.44478C14.3247 2.44478 15.6247 2.70728 16.8414 3.23228C18.058 3.75728 19.1164 4.46978 20.0164 5.36978C20.9164 6.26978 21.6289 7.32811 22.1539 8.54478C22.6789 9.76145 22.9414 11.0614 22.9414 12.4448C22.9414 13.8281 22.6789 15.1281 22.1539 16.3448C21.6289 17.5614 20.9164 18.6198 20.0164 19.5198C19.1164 20.4198 18.058 21.1323 16.8414 21.6573C15.6247 22.1823 14.3247 22.4448 12.9414 22.4448Z" fill="#F7F7F7"/>
</g>
</svg>
