<svg width="18" height="18" viewBox="0 0 18 18" fill="none" xmlns="http://www.w3.org/2000/svg">
<mask id="mask0_513_53" style="mask-type:alpha" maskUnits="userSpaceOnUse" x="0" y="0" width="18" height="18">
<rect width="18" height="18" fill="#D9D9D9"/>
</mask>
<g mask="url(#mask0_513_53)">
<path d="M6.93749 16.5L6.63749 14.1C6.47499 14.0375 6.32187 13.9625 6.17812 13.875C6.03437 13.7875 5.89374 13.6938 5.75624 13.5938L3.52499 14.5313L1.46249 10.9688L3.39374 9.50625C3.38124 9.41875 3.37499 9.33438 3.37499 9.25313V8.74688C3.37499 8.66563 3.38124 8.58125 3.39374 8.49375L1.46249 7.03125L3.52499 3.46875L5.75624 4.40625C5.89374 4.30625 6.03749 4.2125 6.18749 4.125C6.33749 4.0375 6.48749 3.9625 6.63749 3.9L6.93749 1.5H11.0625L11.3625 3.9C11.525 3.9625 11.6781 4.0375 11.8219 4.125C11.9656 4.2125 12.1062 4.30625 12.2437 4.40625L14.475 3.46875L16.5375 7.03125L14.6062 8.49375C14.6187 8.58125 14.625 8.66563 14.625 8.74688V9.25313C14.625 9.33438 14.6125 9.41875 14.5875 9.50625L16.5187 10.9688L14.4562 14.5313L12.2437 13.5938C12.1062 13.6938 11.9625 13.7875 11.8125 13.875C11.6625 13.9625 11.5125 14.0375 11.3625 14.1L11.0625 16.5H6.93749ZM8.24999 15H9.73124L9.99374 13.0125C10.3812 12.9125 10.7406 12.7656 11.0719 12.5719C11.4031 12.3781 11.7062 12.1438 11.9812 11.8688L13.8375 12.6375L14.5687 11.3625L12.9562 10.1438C13.0187 9.96875 13.0625 9.78438 13.0875 9.59063C13.1125 9.39688 13.125 9.2 13.125 9C13.125 8.8 13.1125 8.60313 13.0875 8.40938C13.0625 8.21563 13.0187 8.03125 12.9562 7.85625L14.5687 6.6375L13.8375 5.3625L11.9812 6.15C11.7062 5.8625 11.4031 5.62188 11.0719 5.42813C10.7406 5.23438 10.3812 5.0875 9.99374 4.9875L9.74999 3H8.26874L8.00624 4.9875C7.61874 5.0875 7.25937 5.23438 6.92812 5.42813C6.59687 5.62188 6.29374 5.85625 6.01874 6.13125L4.16249 5.3625L3.43124 6.6375L5.04374 7.8375C4.98124 8.025 4.93749 8.2125 4.91249 8.4C4.88749 8.5875 4.87499 8.7875 4.87499 9C4.87499 9.2 4.88749 9.39375 4.91249 9.58125C4.93749 9.76875 4.98124 9.95625 5.04374 10.1438L3.43124 11.3625L4.16249 12.6375L6.01874 11.85C6.29374 12.1375 6.59687 12.3781 6.92812 12.5719C7.25937 12.7656 7.61874 12.9125 8.00624 13.0125L8.24999 15ZM9.03749 11.625C9.76249 11.625 10.3812 11.3688 10.8937 10.8563C11.4062 10.3438 11.6625 9.725 11.6625 9C11.6625 8.275 11.4062 7.65625 10.8937 7.14375C10.3812 6.63125 9.76249 6.375 9.03749 6.375C8.29999 6.375 7.67812 6.63125 7.17187 7.14375C6.66562 7.65625 6.41249 8.275 6.41249 9C6.41249 9.725 6.66562 10.3438 7.17187 10.8563C7.67812 11.3688 8.29999 11.625 9.03749 11.625Z" fill="#333333"/>
</g>
</svg>
